<svg xmlns="http://www.w3.org/2000/svg" width="1400" height="980" viewBox="0 0 1400 980"><rect width="100%" height="100%" fill="white" /><text x="700" y="42" font-family="sans-serif" font-size="34" text-anchor="middle">Floating-point precision over range (ULP at x = 10^k)</text><line x1="138.23" y1="80.00" x2="138.23" y2="440.00" stroke="#ececec" stroke-width="1"/><text x="138.23" y="462.00" font-family="sans-serif" font-size="12" text-anchor="middle">-300</text><line x1="339.18" y1="80.00" x2="339.18" y2="440.00" stroke="#ececec" stroke-width="1"/><text x="339.18" y="462.00" font-family="sans-serif" font-size="12" text-anchor="middle">-200</text><line x1="540.13" y1="80.00" x2="540.13" y2="440.00" stroke="#ececec" stroke-width="1"/><text x="540.13" y="462.00" font-family="sans-serif" font-size="12" text-anchor="middle">-100</text><line x1="741.08" y1="80.00" x2="741.08" y2="440.00" stroke="#ececec" stroke-width="1"/><text x="741.08" y="462.00" font-family="sans-serif" font-size="12" text-anchor="middle">0</text><line x1="942.03" y1="80.00" x2="942.03" y2="440.00" stroke="#ececec" stroke-width="1"/><text x="942.03" y="462.00" font-family="sans-serif" font-size="12" text-anchor="middle">100</text><line x1="1142.97" y1="80.00" x2="1142.97" y2="440.00" stroke="#ececec" stroke-width="1"/><text x="1142.97" y="462.00" font-family="sans-serif" font-size="12" text-anchor="middle">200</text><line x1="1343.92" y1="80.00" x2="1343.92" y2="440.00" stroke="#ececec" stroke-width="1"/><text x="1343.92" y="462.00" font-family="sans-serif" font-size="12" text-anchor="middle">300</text><line x1="90.00" y1="422.86" x2="1360.00" y2="422.86" stroke="#ececec" stroke-width="1"/><text x="82.00" y="426.86" font-family="sans-serif" font-size="12" text-anchor="end">-300.00</text><line x1="90.00" y1="365.71" x2="1360.00" y2="365.71" stroke="#ececec" stroke-width="1"/><text x="82.00" y="369.71" font-family="sans-serif" font-size="12" text-anchor="end">-200.00</text><line x1="90.00" y1="308.57" x2="1360.00" y2="308.57" stroke="#ececec" stroke-width="1"/><text x="82.00" y="312.57" font-family="sans-serif" font-size="12" text-anchor="end">-100.00</text><line x1="90.00" y1="251.43" x2="1360.00" y2="251.43" stroke="#ececec" stroke-width="1"/><text x="82.00" y="255.43" font-family="sans-serif" font-size="12" text-anchor="end">0.00</text><line x1="90.00" y1="194.29" x2="1360.00" y2="194.29" stroke="#ececec" stroke-width="1"/><text x="82.00" y="198.29" font-family="sans-serif" font-size="12" text-anchor="end">100.00</text><line x1="90.00" y1="137.14" x2="1360.00" y2="137.14" stroke="#ececec" stroke-width="1"/><text x="82.00" y="141.14" font-family="sans-serif" font-size="12" text-anchor="end">200.00</text><line x1="90.00" y1="80.00" x2="1360.00" y2="80.00" stroke="#ececec" stroke-width="1"/><text x="82.00" y="84.00" font-family="sans-serif" font-size="12" text-anchor="end">300.00</text><line x1="90.00" y1="80.00" x2="90.00" y2="440.00" stroke="#222" stroke-width="2"/><line x1="90.00" y1="440.00" x2="1360.00" y2="440.00" stroke="#222" stroke-width="2"/><text x="725" y="488" font-family="sans-serif" font-size="16" text-anchor="middle">k where x = 10^k</text><text x="22" y="260" font-family="sans-serif" font-size="16" text-anchor="middle" transform="rotate(-90 22,260)">log10(ULP(x))</text><polyline fill="none" stroke="#1565c0" stroke-width="2" points="91.00,436.17 91.51,436.17 92.01,436.17 92.51,436.17 93.01,436.17 93.52,436.17 94.02,436.17 94.52,436.17 95.02,436.17 95.53,436.17 96.03,436.17 96.53,436.17 97.03,436.17 97.54,436.17 98.04,436.17 98.54,436.17 99.04,436.17 99.55,436.17 100.05,436.17 100.55,436.17 101.05,436.17 101.55,436.17 102.06,436.17 102.56,436.17 103.06,436.17 103.56,436.17 104.07,436.17 104.57,436.17 105.07,436.17 105.57,436.17 106.08,436.17 106.58,436.17 107.08,436.17 107.58,436.17 108.09,436.17 108.59,436.17 109.09,436.17 109.59,436.17 110.09,436.17 110.60,436.17 111.10,436.17 111.60,436.17 112.10,436.17 112.61,436.17 113.11,436.17 113.61,436.17 114.11,436.17 114.62,436.17 115.12,436.17 115.62,436.17 116.12,436.17 116.63,436.17 117.13,436.17 117.63,436.17 118.13,436.17 118.64,436.17 119.14,436.17 119.64,436.17 120.14,436.17 120.64,436.17 121.15,436.17 121.65,436.17 122.15,436.17 122.65,436.17 123.16,436.17 123.66,436.00 124.16,435.83 124.66,435.83 125.17,435.66 125.67,435.49 126.17,435.31 126.67,435.14 127.18,434.97 127.68,434.97 128.18,434.80 128.68,434.63 129.19,434.45 129.69,434.28 130.19,434.11 130.69,434.11 131.19,433.94 131.70,433.77 132.20,433.59 132.70,433.42 133.20,433.25 133.71,433.25 134.21,433.08 134.71,432.91 135.21,432.73 135.72,432.56 136.22,432.39 136.72,432.39 137.22,432.22 137.73,432.05 138.23,431.87 138.73,431.70 139.23,431.53 139.73,431.53 140.24,431.36 140.74,431.19 141.24,431.01 141.74,430.84 142.25,430.67 142.75,430.67 143.25,430.50 143.75,430.33 144.26,430.15 144.76,429.98 145.26,429.81 145.76,429.81 146.27,429.64 146.77,429.47 147.27,429.29 147.77,429.12 148.28,428.95 148.78,428.95 149.28,428.78 149.78,428.61 150.28,428.43 150.79,428.26 151.29,428.09 151.79,428.09 152.29,427.92 152.80,427.75 153.30,427.57 153.80,427.40 154.30,427.40 154.81,427.23 155.31,427.06 155.81,426.89 156.31,426.71 156.82,426.54 157.32,426.54 157.82,426.37 158.32,426.20 158.83,426.03 159.33,425.85 159.83,425.68 160.33,425.68 160.83,425.51 161.34,425.34 161.84,425.17 162.34,424.99 162.84,424.82 163.35,424.82 163.85,424.65 164.35,424.48 164.85,424.31 165.36,424.13 165.86,423.96 166.36,423.96 166.86,423.79 167.37,423.62 167.87,423.45 168.37,423.27 168.87,423.10 169.38,423.10 169.88,422.93 170.38,422.76 170.88,422.59 171.38,422.41 171.89,422.24 172.39,422.24 172.89,422.07 173.39,421.90 173.90,421.73 174.40,421.55 174.90,421.38 175.40,421.38 175.91,421.21 176.41,421.04 176.91,420.87 177.41,420.69 177.92,420.52 178.42,420.52 178.92,420.35 179.42,420.18 179.92,420.01 180.43,419.83 180.93,419.66 181.43,419.66 181.93,419.49 182.44,419.32 182.94,419.15 183.44,418.97 183.94,418.97 184.45,418.80 184.95,418.63 185.45,418.46 185.95,418.29 186.46,418.11 186.96,418.11 187.46,417.94 187.96,417.77 188.47,417.60 188.97,417.43 189.47,417.25 189.97,417.25 190.47,417.08 190.98,416.91 191.48,416.74 191.98,416.57 192.48,416.39 192.99,416.39 193.49,416.22 193.99,416.05 194.49,415.88 195.00,415.70 195.50,415.53 196.00,415.53 196.50,415.36 197.01,415.19 197.51,415.02 198.01,414.84 198.51,414.67 199.02,414.67 199.52,414.50 200.02,414.33 200.52,414.16 201.02,413.98 201.53,413.81 202.03,413.81 202.53,413.64 203.03,413.47 203.54,413.30 204.04,413.12 204.54,412.95 205.04,412.95 205.55,412.78 206.05,412.61 206.55,412.44 207.05,412.26 207.56,412.09 208.06,412.09 208.56,411.92 209.06,411.75 209.56,411.58 210.07,411.40 210.57,411.23 211.07,411.23 211.57,411.06 212.08,410.89 212.58,410.72 213.08,410.54 213.58,410.54 214.09,410.37 214.59,410.20 215.09,410.03 215.59,409.86 216.10,409.68 216.60,409.68 217.10,409.51 217.60,409.34 218.11,409.17 218.61,409.00 219.11,408.82 219.61,408.82 220.11,408.65 220.62,408.48 221.12,408.31 221.62,408.14 222.12,407.96 222.63,407.96 223.13,407.79 223.63,407.62 224.13,407.45 224.64,407.28 225.14,407.10 225.64,407.10 226.14,406.93 226.65,406.76 227.15,406.59 227.65,406.42 228.15,406.24 228.66,406.24 229.16,406.07 229.66,405.90 230.16,405.73 230.66,405.56 231.17,405.38 231.67,405.38 232.17,405.21 232.67,405.04 233.18,404.87 233.68,404.70 234.18,404.52 234.68,404.52 235.19,404.35 235.69,404.18 236.19,404.01 236.69,403.84 237.20,403.66 237.70,403.66 238.20,403.49 238.70,403.32 239.20,403.15 239.71,402.98 240.21,402.80 240.71,402.80 241.21,402.63 241.72,402.46 242.22,402.29 242.72,402.12 243.22,402.12 243.73,401.94 244.23,401.77 244.73,401.60 245.23,401.43 245.74,401.26 246.24,401.26 246.74,401.08 247.24,400.91 247.75,400.74 248.25,400.57 248.75,400.40 249.25,400.40 249.75,400.22 250.26,400.05 250.76,399.88 251.26,399.71 251.76,399.54 252.27,399.54 252.77,399.36 253.27,399.19 253.77,399.02 254.28,398.85 254.78,398.68 255.28,398.68 255.78,398.50 256.29,398.33 256.79,398.16 257.29,397.99 257.79,397.82 258.30,397.82 258.80,397.64 259.30,397.47 259.80,397.30 260.30,397.13 260.81,396.96 261.31,396.96 261.81,396.78 262.31,396.61 262.82,396.44 263.32,396.27 263.82,396.09 264.32,396.09 264.83,395.92 265.33,395.75 265.83,395.58 266.33,395.41 266.84,395.23 267.34,395.23 267.84,395.06 268.34,394.89 268.84,394.72 269.35,394.55 269.85,394.37 270.35,394.37 270.85,394.20 271.36,394.03 271.86,393.86 272.36,393.69 272.86,393.69 273.37,393.51 273.87,393.34 274.37,393.17 274.87,393.00 275.38,392.83 275.88,392.83 276.38,392.65 276.88,392.48 277.39,392.31 277.89,392.14 278.39,391.97 278.89,391.97 279.39,391.79 279.90,391.62 280.40,391.45 280.90,391.28 281.40,391.11 281.91,391.11 282.41,390.93 282.91,390.76 283.41,390.59 283.92,390.42 284.42,390.25 284.92,390.25 285.42,390.07 285.93,389.90 286.43,389.73 286.93,389.56 287.43,389.39 287.94,389.39 288.44,389.21 288.94,389.04 289.44,388.87 289.94,388.70 290.45,388.53 290.95,388.53 291.45,388.35 291.95,388.18 292.46,388.01 292.96,387.84 293.46,387.67 293.96,387.67 294.47,387.49 294.97,387.32 295.47,387.15 295.97,386.98 296.48,386.81 296.98,386.81 297.48,386.63 297.98,386.46 298.48,386.29 298.99,386.12 299.49,385.95 299.99,385.95 300.49,385.77 301.00,385.60 301.50,385.43 302.00,385.26 302.50,385.26 303.01,385.09 303.51,384.91 304.01,384.74 304.51,384.57 305.02,384.40 305.52,384.40 306.02,384.23 306.52,384.05 307.03,383.88 307.53,383.71 308.03,383.54 308.53,383.54 309.03,383.37 309.54,383.19 310.04,383.02 310.54,382.85 311.04,382.68 311.55,382.68 312.05,382.51 312.55,382.33 313.05,382.16 313.56,381.99 314.06,381.82 314.56,381.82 315.06,381.65 315.57,381.47 316.07,381.30 316.57,381.13 317.07,380.96 317.58,380.96 318.08,380.79 318.58,380.61 319.08,380.44 319.58,380.27 320.09,380.10 320.59,380.10 321.09,379.93 321.59,379.75 322.10,379.58 322.60,379.41 323.10,379.24 323.60,379.24 324.11,379.07 324.61,378.89 325.11,378.72 325.61,378.55 326.12,378.38 326.62,378.38 327.12,378.21 327.62,378.03 328.12,377.86 328.63,377.69 329.13,377.52 329.63,377.52 330.13,377.35 330.64,377.17 331.14,377.00 331.64,376.83 332.14,376.83 332.65,376.66 333.15,376.49 333.65,376.31 334.15,376.14 334.66,375.97 335.16,375.97 335.66,375.80 336.16,375.62 336.67,375.45 337.17,375.28 337.67,375.11 338.17,375.11 338.67,374.94 339.18,374.76 339.68,374.59 340.18,374.42 340.68,374.25 341.19,374.25 341.69,374.08 342.19,373.90 342.69,373.73 343.20,373.56 343.70,373.39 344.20,373.39 344.70,373.22 345.21,373.04 345.71,372.87 346.21,372.70 346.71,372.53 347.22,372.53 347.72,372.36 348.22,372.18 348.72,372.01 349.22,371.84 349.73,371.67 350.23,371.67 350.73,371.50 351.23,371.32 351.74,371.15 352.24,370.98 352.74,370.81 353.24,370.81 353.75,370.64 354.25,370.46 354.75,370.29 355.25,370.12 355.76,369.95 356.26,369.95 356.76,369.78 357.26,369.60 357.77,369.43 358.27,369.26 358.77,369.09 359.27,369.09 359.77,368.92 360.28,368.74 360.78,368.57 361.28,368.40 361.78,368.40 362.29,368.23 362.79,368.06 363.29,367.88 363.79,367.71 364.30,367.54 364.80,367.54 365.30,367.37 365.80,367.20 366.31,367.02 366.81,366.85 367.31,366.68 367.81,366.68 368.31,366.51 368.82,366.34 369.32,366.16 369.82,365.99 370.32,365.82 370.83,365.82 371.33,365.65 371.83,365.48 372.33,365.30 372.84,365.13 373.34,364.96 373.84,364.96 374.34,364.79 374.85,364.62 375.35,364.44 375.85,364.27 376.35,364.10 376.86,364.10 377.36,363.93 377.86,363.76 378.36,363.58 378.86,363.41 379.37,363.24 379.87,363.24 380.37,363.07 380.87,362.90 381.38,362.72 381.88,362.55 382.38,362.38 382.88,362.38 383.39,362.21 383.89,362.04 384.39,361.86 384.89,361.69 385.40,361.52 385.90,361.52 386.40,361.35 386.90,361.18 387.41,361.00 387.91,360.83 388.41,360.66 388.91,360.66 389.41,360.49 389.92,360.32 390.42,360.14 390.92,359.97 391.42,359.97 391.93,359.80 392.43,359.63 392.93,359.46 393.43,359.28 393.94,359.11 394.44,359.11 394.94,358.94 395.44,358.77 395.95,358.60 396.45,358.42 396.95,358.25 397.45,358.25 397.95,358.08 398.46,357.91 398.96,357.74 399.46,357.56 399.96,357.39 400.47,357.39 400.97,357.22 401.47,357.05 401.97,356.88 402.48,356.70 402.98,356.53 403.48,356.53 403.98,356.36 404.49,356.19 404.99,356.01 405.49,355.84 405.99,355.67 406.50,355.67 407.00,355.50 407.50,355.33 408.00,355.15 408.50,354.98 409.01,354.81 409.51,354.81 410.01,354.64 410.51,354.47 411.02,354.29 411.52,354.12 412.02,353.95 412.52,353.95 413.03,353.78 413.53,353.61 414.03,353.43 414.53,353.26 415.04,353.09 415.54,353.09 416.04,352.92 416.54,352.75 417.05,352.57 417.55,352.40 418.05,352.23 418.55,352.23 419.05,352.06 419.56,351.89 420.06,351.71 420.56,351.54 421.06,351.54 421.57,351.37 422.07,351.20 422.57,351.03 423.07,350.85 423.58,350.68 424.08,350.68 424.58,350.51 425.08,350.34 425.59,350.17 426.09,349.99 426.59,349.82 427.09,349.82 427.59,349.65 428.10,349.48 428.60,349.31 429.10,349.13 429.60,348.96 430.11,348.96 430.61,348.79 431.11,348.62 431.61,348.45 432.12,348.27 432.62,348.10 433.12,348.10 433.62,347.93 434.13,347.76 434.63,347.59 435.13,347.41 435.63,347.24 436.14,347.24 436.64,347.07 437.14,346.90 437.64,346.73 438.14,346.55 438.65,346.38 439.15,346.38 439.65,346.21 440.15,346.04 440.66,345.87 441.16,345.69 441.66,345.52 442.16,345.52 442.67,345.35 443.17,345.18 443.67,345.01 444.17,344.83 444.68,344.66 445.18,344.66 445.68,344.49 446.18,344.32 446.69,344.15 447.19,343.97 447.69,343.97 448.19,343.80 448.69,343.63 449.20,343.46 449.70,343.29 450.20,343.11 450.70,343.11 451.21,342.94 451.71,342.77 452.21,342.60 452.71,342.43 453.22,342.25 453.72,342.25 454.22,342.08 454.72,341.91 455.23,341.74 455.73,341.57 456.23,341.39 456.73,341.39 457.23,341.22 457.74,341.05 458.24,340.88 458.74,340.71 459.24,340.53 459.75,340.53 460.25,340.36 460.75,340.19 461.25,340.02 461.76,339.85 462.26,339.67 462.76,339.67 463.26,339.50 463.77,339.33 464.27,339.16 464.77,338.99 465.27,338.81 465.78,338.81 466.28,338.64 466.78,338.47 467.28,338.30 467.78,338.13 468.29,337.95 468.79,337.95 469.29,337.78 469.79,337.61 470.30,337.44 470.80,337.27 471.30,337.09 471.80,337.09 472.31,336.92 472.81,336.75 473.31,336.58 473.81,336.41 474.32,336.23 474.82,336.23 475.32,336.06 475.82,335.89 476.33,335.72 476.83,335.54 477.33,335.54 477.83,335.37 478.33,335.20 478.84,335.03 479.34,334.86 479.84,334.68 480.34,334.68 480.85,334.51 481.35,334.34 481.85,334.17 482.35,334.00 482.86,333.82 483.36,333.82 483.86,333.65 484.36,333.48 484.87,333.31 485.37,333.14 485.87,332.96 486.37,332.96 486.88,332.79 487.38,332.62 487.88,332.45 488.38,332.28 488.88,332.10 489.39,332.10 489.89,331.93 490.39,331.76 490.89,331.59 491.40,331.42 491.90,331.24 492.40,331.24 492.90,331.07 493.41,330.90 493.91,330.73 494.41,330.56 494.91,330.38 495.42,330.38 495.92,330.21 496.42,330.04 496.92,329.87 497.42,329.70 497.93,329.52 498.43,329.52 498.93,329.35 499.43,329.18 499.94,329.01 500.44,328.84 500.94,328.66 501.44,328.66 501.95,328.49 502.45,328.32 502.95,328.15 503.45,327.98 503.96,327.80 504.46,327.80 504.96,327.63 505.46,327.46 505.97,327.29 506.47,327.12 506.97,327.12 507.47,326.94 507.97,326.77 508.48,326.60 508.98,326.43 509.48,326.26 509.98,326.26 510.49,326.08 510.99,325.91 511.49,325.74 511.99,325.57 512.50,325.40 513.00,325.40 513.50,325.22 514.00,325.05 514.51,324.88 515.01,324.71 515.51,324.54 516.01,324.54 516.52,324.36 517.02,324.19 517.52,324.02 518.02,323.85 518.52,323.68 519.03,323.68 519.53,323.50 520.03,323.33 520.53,323.16 521.04,322.99 521.54,322.82 522.04,322.82 522.54,322.64 523.05,322.47 523.55,322.30 524.05,322.13 524.55,321.96 525.06,321.96 525.56,321.78 526.06,321.61 526.56,321.44 527.06,321.27 527.57,321.10 528.07,321.10 528.57,320.92 529.07,320.75 529.58,320.58 530.08,320.41 530.58,320.24 531.08,320.24 531.59,320.06 532.09,319.89 532.59,319.72 533.09,319.55 533.60,319.38 534.10,319.38 534.60,319.20 535.10,319.03 535.61,318.86 536.11,318.69 536.61,318.69 537.11,318.52 537.61,318.34 538.12,318.17 538.62,318.00 539.12,317.83 539.62,317.83 540.13,317.66 540.63,317.48 541.13,317.31 541.63,317.14 542.14,316.97 542.64,316.97 543.14,316.80 543.64,316.62 544.15,316.45 544.65,316.28 545.15,316.11 545.65,316.11 546.16,315.93 546.66,315.76 547.16,315.59 547.66,315.42 548.16,315.25 548.67,315.25 549.17,315.07 549.67,314.90 550.17,314.73 550.68,314.56 551.18,314.39 551.68,314.39 552.18,314.21 552.69,314.04 553.19,313.87 553.69,313.70 554.19,313.53 554.70,313.53 555.20,313.35 555.70,313.18 556.20,313.01 556.70,312.84 557.21,312.67 557.71,312.67 558.21,312.49 558.71,312.32 559.22,312.15 559.72,311.98 560.22,311.81 560.72,311.81 561.23,311.63 561.73,311.46 562.23,311.29 562.73,311.12 563.24,310.95 563.74,310.95 564.24,310.77 564.74,310.60 565.25,310.43 565.75,310.26 566.25,310.26 566.75,310.09 567.25,309.91 567.76,309.74 568.26,309.57 568.76,309.40 569.26,309.40 569.77,309.23 570.27,309.05 570.77,308.88 571.27,308.71 571.78,308.54 572.28,308.54 572.78,308.37 573.28,308.19 573.79,308.02 574.29,307.85 574.79,307.68 575.29,307.68 575.80,307.51 576.30,307.33 576.80,307.16 577.30,306.99 577.80,306.82 578.31,306.82 578.81,306.65 579.31,306.47 579.81,306.30 580.32,306.13 580.82,305.96 581.32,305.96 581.82,305.79 582.33,305.61 582.83,305.44 583.33,305.27 583.83,305.10 584.34,305.10 584.84,304.93 585.34,304.75 585.84,304.58 586.34,304.41 586.85,304.24 587.35,304.24 587.85,304.07 588.35,303.89 588.86,303.72 589.36,303.55 589.86,303.38 590.36,303.38 590.87,303.21 591.37,303.03 591.87,302.86 592.37,302.69 592.88,302.52 593.38,302.52 593.88,302.35 594.38,302.17 594.89,302.00 595.39,301.83 595.89,301.83 596.39,301.66 596.89,301.49 597.40,301.31 597.90,301.14 598.40,300.97 598.90,300.97 599.41,300.80 599.91,300.63 600.41,300.45 600.91,300.28 601.42,300.11 601.92,300.11 602.42,299.94 602.92,299.77 603.43,299.59 603.93,299.42 604.43,299.25 604.93,299.25 605.44,299.08 605.94,298.91 606.44,298.73 606.94,298.56 607.44,298.39 607.95,298.39 608.45,298.22 608.95,298.05 609.45,297.87 609.96,297.70 610.46,297.53 610.96,297.53 611.46,297.36 611.97,297.19 612.47,297.01 612.97,296.84 613.47,296.67 613.98,296.67 614.48,296.50 614.98,296.33 615.48,296.15 615.98,295.98 616.49,295.81 616.99,295.81 617.49,295.64 617.99,295.46 618.50,295.29 619.00,295.12 619.50,294.95 620.00,294.95 620.51,294.78 621.01,294.60 621.51,294.43 622.01,294.26 622.52,294.09 623.02,294.09 623.52,293.92 624.02,293.74 624.53,293.57 625.03,293.40 625.53,293.40 626.03,293.23 626.53,293.06 627.04,292.88 627.54,292.71 628.04,292.54 628.54,292.54 629.05,292.37 629.55,292.20 630.05,292.02 630.55,291.85 631.06,291.68 631.56,291.68 632.06,291.51 632.56,291.34 633.07,291.16 633.57,290.99 634.07,290.82 634.57,290.82 635.08,290.65 635.58,290.48 636.08,290.30 636.58,290.13 637.08,289.96 637.59,289.96 638.09,289.79 638.59,289.62 639.09,289.44 639.60,289.27 640.10,289.10 640.60,289.10 641.10,288.93 641.61,288.76 642.11,288.58 642.61,288.41 643.11,288.24 643.62,288.24 644.12,288.07 644.62,287.90 645.12,287.72 645.62,287.55 646.13,287.38 646.63,287.38 647.13,287.21 647.63,287.04 648.14,286.86 648.64,286.69 649.14,286.52 649.64,286.52 650.15,286.35 650.65,286.18 651.15,286.00 651.65,285.83 652.16,285.66 652.66,285.66 653.16,285.49 653.66,285.32 654.17,285.14 654.67,284.97 655.17,284.97 655.67,284.80 656.17,284.63 656.68,284.46 657.18,284.28 657.68,284.11 658.18,284.11 658.69,283.94 659.19,283.77 659.69,283.60 660.19,283.42 660.70,283.25 661.20,283.25 661.70,283.08 662.20,282.91 662.71,282.74 663.21,282.56 663.71,282.39 664.21,282.39 664.72,282.22 665.22,282.05 665.72,281.88 666.22,281.70 666.72,281.53 667.23,281.53 667.73,281.36 668.23,281.19 668.73,281.02 669.24,280.84 669.74,280.67 670.24,280.67 670.74,280.50 671.25,280.33 671.75,280.16 672.25,279.98 672.75,279.81 673.26,279.81 673.76,279.64 674.26,279.47 674.76,279.30 675.27,279.12 675.77,278.95 676.27,278.95 676.77,278.78 677.27,278.61 677.78,278.44 678.28,278.26 678.78,278.09 679.28,278.09 679.79,277.92 680.29,277.75 680.79,277.58 681.29,277.40 681.80,277.23 682.30,277.23 682.80,277.06 683.30,276.89 683.81,276.72 684.31,276.54 684.81,276.54 685.31,276.37 685.81,276.20 686.32,276.03 686.82,275.86 687.32,275.68 687.82,275.68 688.33,275.51 688.83,275.34 689.33,275.17 689.83,274.99 690.34,274.82 690.84,274.82 691.34,274.65 691.84,274.48 692.35,274.31 692.85,274.13 693.35,273.96 693.85,273.96 694.36,273.79 694.86,273.62 695.36,273.45 695.86,273.27 696.36,273.10 696.87,273.10 697.37,272.93 697.87,272.76 698.37,272.59 698.88,272.41 699.38,272.24 699.88,272.24 700.38,272.07 700.89,271.90 701.39,271.73 701.89,271.55 702.39,271.38 702.90,271.38 703.40,271.21 703.90,271.04 704.40,270.87 704.91,270.69 705.41,270.52 705.91,270.52 706.41,270.35 706.91,270.18 707.42,270.01 707.92,269.83 708.42,269.66 708.92,269.66 709.43,269.49 709.93,269.32 710.43,269.15 710.93,268.97 711.44,268.80 711.94,268.80 712.44,268.63 712.94,268.46 713.45,268.29 713.95,268.11 714.45,268.11 714.95,267.94 715.45,267.77 715.96,267.60 716.46,267.43 716.96,267.25 717.46,267.25 717.97,267.08 718.47,266.91 718.97,266.74 719.47,266.57 719.98,266.39 720.48,266.39 720.98,266.22 721.48,266.05 721.99,265.88 722.49,265.71 722.99,265.53 723.49,265.53 724.00,265.36 724.50,265.19 725.00,265.02 725.50,264.85 726.00,264.67 726.51,264.67 727.01,264.50 727.51,264.33 728.01,264.16 728.52,263.99 729.02,263.81 729.52,263.81 730.02,263.64 730.53,263.47 731.03,263.30 731.53,263.13 732.03,262.95 732.54,262.95 733.04,262.78 733.54,262.61 734.04,262.44 734.55,262.27 735.05,262.09 735.55,262.09 736.05,261.92 736.55,261.75 737.06,261.58 737.56,261.41 738.06,261.23 738.56,261.23 739.07,261.06 739.57,260.89 740.07,260.72 740.57,260.55 741.08,260.37 741.58,260.37 742.08,260.20 742.58,260.03 743.09,259.86 743.59,259.69 744.09,259.69 744.59,259.51 745.09,259.34 745.60,259.17 746.10,259.00 746.60,258.83 747.10,258.83 747.61,258.65 748.11,258.48 748.61,258.31 749.11,258.14 749.62,257.97 750.12,257.97 750.62,257.79 751.12,257.62 751.63,257.45 752.13,257.28 752.63,257.11 753.13,257.11 753.64,256.93 754.14,256.76 754.64,256.59 755.14,256.42 755.64,256.25 756.15,256.25 756.65,256.07 757.15,255.90 757.65,255.73 758.16,255.56 758.66,255.38 759.16,255.38 759.66,255.21 760.17,255.04 760.67,254.87 761.17,254.70 761.67,254.52 762.18,254.52 762.68,254.35 763.18,254.18 763.68,254.01 764.19,253.84 764.69,253.66 765.19,253.66 765.69,253.49 766.19,253.32 766.70,253.15 767.20,252.98 767.70,252.80 768.20,252.80 768.71,252.63 769.21,252.46 769.71,252.29 770.21,252.12 770.72,252.12 771.22,251.94 771.72,251.77 772.22,251.60 772.73,251.43 773.23,251.26 773.73,251.26 774.23,251.08 774.73,250.91 775.24,250.74 775.74,250.57 776.24,250.40 776.74,250.40 777.25,250.22 777.75,250.05 778.25,249.88 778.75,249.71 779.26,249.54 779.76,249.54 780.26,249.36 780.76,249.19 781.27,249.02 781.77,248.85 782.27,248.68 782.77,248.68 783.28,248.50 783.78,248.33 784.28,248.16 784.78,247.99 785.28,247.82 785.79,247.82 786.29,247.64 786.79,247.47 787.29,247.30 787.80,247.13 788.30,246.96 788.80,246.96 789.30,246.78 789.81,246.61 790.31,246.44 790.81,246.27 791.31,246.10 791.82,246.10 792.32,245.92 792.82,245.75 793.32,245.58 793.83,245.41 794.33,245.24 794.83,245.24 795.33,245.06 795.83,244.89 796.34,244.72 796.84,244.55 797.34,244.38 797.84,244.38 798.35,244.20 798.85,244.03 799.35,243.86 799.85,243.69 800.36,243.69 800.86,243.52 801.36,243.34 801.86,243.17 802.37,243.00 802.87,242.83 803.37,242.83 803.87,242.66 804.38,242.48 804.88,242.31 805.38,242.14 805.88,241.97 806.38,241.97 806.89,241.80 807.39,241.62 807.89,241.45 808.39,241.28 808.90,241.11 809.40,241.11 809.90,240.94 810.40,240.76 810.91,240.59 811.41,240.42 811.91,240.25 812.41,240.25 812.92,240.08 813.42,239.90 813.92,239.73 814.42,239.56 814.92,239.39 815.43,239.39 815.93,239.22 816.43,239.04 816.93,238.87 817.44,238.70 817.94,238.53 818.44,238.53 818.94,238.36 819.45,238.18 819.95,238.01 820.45,237.84 820.95,237.67 821.46,237.67 821.96,237.50 822.46,237.32 822.96,237.15 823.47,236.98 823.97,236.81 824.47,236.81 824.97,236.64 825.47,236.46 825.98,236.29 826.48,236.12 826.98,235.95 827.48,235.95 827.99,235.78 828.49,235.60 828.99,235.43 829.49,235.26 830.00,235.26 830.50,235.09 831.00,234.91 831.50,234.74 832.01,234.57 832.51,234.40 833.01,234.40 833.51,234.23 834.02,234.05 834.52,233.88 835.02,233.71 835.52,233.54 836.02,233.54 836.53,233.37 837.03,233.19 837.53,233.02 838.03,232.85 838.54,232.68 839.04,232.68 839.54,232.51 840.04,232.33 840.55,232.16 841.05,231.99 841.55,231.82 842.05,231.82 842.56,231.65 843.06,231.47 843.56,231.30 844.06,231.13 844.56,230.96 845.07,230.96 845.57,230.79 846.07,230.61 846.57,230.44 847.08,230.27 847.58,230.10 848.08,230.10 848.58,229.93 849.09,229.75 849.59,229.58 850.09,229.41 850.59,229.24 851.10,229.24 851.60,229.07 852.10,228.89 852.60,228.72 853.11,228.55 853.61,228.38 854.11,228.38 854.61,228.21 855.11,228.03 855.62,227.86 856.12,227.69 856.62,227.52 857.12,227.52 857.63,227.35 858.13,227.17 858.63,227.00 859.13,226.83 859.64,226.83 860.14,226.66 860.64,226.49 861.14,226.31 861.65,226.14 862.15,225.97 862.65,225.97 863.15,225.80 863.66,225.63 864.16,225.45 864.66,225.28 865.16,225.11 865.66,225.11 866.17,224.94 866.67,224.77 867.17,224.59 867.67,224.42 868.18,224.25 868.68,224.25 869.18,224.08 869.68,223.91 870.19,223.73 870.69,223.56 871.19,223.39 871.69,223.39 872.20,223.22 872.70,223.05 873.20,222.87 873.70,222.70 874.20,222.53 874.71,222.53 875.21,222.36 875.71,222.19 876.21,222.01 876.72,221.84 877.22,221.67 877.72,221.67 878.22,221.50 878.73,221.33 879.23,221.15 879.73,220.98 880.23,220.81 880.74,220.81 881.24,220.64 881.74,220.47 882.24,220.29 882.75,220.12 883.25,219.95 883.75,219.95 884.25,219.78 884.75,219.61 885.26,219.43 885.76,219.26 886.26,219.09 886.76,219.09 887.27,218.92 887.77,218.75 888.27,218.57 888.77,218.40 889.28,218.40 889.78,218.23 890.28,218.06 890.78,217.89 891.29,217.71 891.79,217.54 892.29,217.54 892.79,217.37 893.30,217.20 893.80,217.03 894.30,216.85 894.80,216.68 895.30,216.68 895.81,216.51 896.31,216.34 896.81,216.17 897.31,215.99 897.82,215.82 898.32,215.82 898.82,215.65 899.32,215.48 899.83,215.30 900.33,215.13 900.83,214.96 901.33,214.96 901.84,214.79 902.34,214.62 902.84,214.44 903.34,214.27 903.84,214.10 904.35,214.10 904.85,213.93 905.35,213.76 905.85,213.58 906.36,213.41 906.86,213.24 907.36,213.24 907.86,213.07 908.37,212.90 908.87,212.72 909.37,212.55 909.87,212.38 910.38,212.38 910.88,212.21 911.38,212.04 911.88,211.86 912.39,211.69 912.89,211.52 913.39,211.52 913.89,211.35 914.39,211.18 914.90,211.00 915.40,210.83 915.90,210.66 916.40,210.66 916.91,210.49 917.41,210.32 917.91,210.14 918.41,209.97 918.92,209.97 919.42,209.80 919.92,209.63 920.42,209.46 920.93,209.28 921.43,209.11 921.93,209.11 922.43,208.94 922.94,208.77 923.44,208.60 923.94,208.42 924.44,208.25 924.94,208.25 925.45,208.08 925.95,207.91 926.45,207.74 926.95,207.56 927.46,207.39 927.96,207.39 928.46,207.22 928.96,207.05 929.47,206.88 929.97,206.70 930.47,206.53 930.97,206.53 931.48,206.36 931.98,206.19 932.48,206.02 932.98,205.84 933.48,205.67 933.99,205.67 934.49,205.50 934.99,205.33 935.49,205.16 936.00,204.98 936.50,204.81 937.00,204.81 937.50,204.64 938.01,204.47 938.51,204.30 939.01,204.12 939.51,203.95 940.02,203.95 940.52,203.78 941.02,203.61 941.52,203.44 942.03,203.26 942.53,203.09 943.03,203.09 943.53,202.92 944.03,202.75 944.54,202.58 945.04,202.40 945.54,202.23 946.04,202.23 946.55,202.06 947.05,201.89 947.55,201.72 948.05,201.54 948.56,201.54 949.06,201.37 949.56,201.20 950.06,201.03 950.57,200.86 951.07,200.68 951.57,200.68 952.07,200.51 952.58,200.34 953.08,200.17 953.58,200.00 954.08,199.82 954.58,199.82 955.09,199.65 955.59,199.48 956.09,199.31 956.59,199.14 957.10,198.96 957.60,198.96 958.10,198.79 958.60,198.62 959.11,198.45 959.61,198.28 960.11,198.10 960.61,198.10 961.12,197.93 961.62,197.76 962.12,197.59 962.62,197.42 963.12,197.24 963.63,197.24 964.13,197.07 964.63,196.90 965.13,196.73 965.64,196.56 966.14,196.38 966.64,196.38 967.14,196.21 967.65,196.04 968.15,195.87 968.65,195.70 969.15,195.52 969.66,195.52 970.16,195.35 970.66,195.18 971.16,195.01 971.67,194.83 972.17,194.66 972.67,194.66 973.17,194.49 973.67,194.32 974.18,194.15 974.68,193.97 975.18,193.80 975.68,193.80 976.19,193.63 976.69,193.46 977.19,193.29 977.69,193.11 978.20,193.11 978.70,192.94 979.20,192.77 979.70,192.60 980.21,192.43 980.71,192.25 981.21,192.25 981.71,192.08 982.22,191.91 982.72,191.74 983.22,191.57 983.72,191.39 984.22,191.39 984.73,191.22 985.23,191.05 985.73,190.88 986.23,190.71 986.74,190.53 987.24,190.53 987.74,190.36 988.24,190.19 988.75,190.02 989.25,189.85 989.75,189.67 990.25,189.67 990.76,189.50 991.26,189.33 991.76,189.16 992.26,188.99 992.77,188.81 993.27,188.81 993.77,188.64 994.27,188.47 994.77,188.30 995.28,188.13 995.78,187.95 996.28,187.95 996.78,187.78 997.29,187.61 997.79,187.44 998.29,187.27 998.79,187.09 999.30,187.09 999.80,186.92 1000.30,186.75 1000.80,186.58 1001.31,186.41 1001.81,186.23 1002.31,186.23 1002.81,186.06 1003.31,185.89 1003.82,185.72 1004.32,185.55 1004.82,185.37 1005.32,185.37 1005.83,185.20 1006.33,185.03 1006.83,184.86 1007.33,184.69 1007.84,184.69 1008.34,184.51 1008.84,184.34 1009.34,184.17 1009.85,184.00 1010.35,183.83 1010.85,183.83 1011.35,183.65 1011.86,183.48 1012.36,183.31 1012.86,183.14 1013.36,182.97 1013.86,182.97 1014.37,182.79 1014.87,182.62 1015.37,182.45 1015.87,182.28 1016.38,182.11 1016.88,182.11 1017.38,181.93 1017.88,181.76 1018.39,181.59 1018.89,181.42 1019.39,181.25 1019.89,181.25 1020.40,181.07 1020.90,180.90 1021.40,180.73 1021.90,180.56 1022.41,180.39 1022.91,180.39 1023.41,180.21 1023.91,180.04 1024.41,179.87 1024.92,179.70 1025.42,179.53 1025.92,179.53 1026.42,179.35 1026.93,179.18 1027.43,179.01 1027.93,178.84 1028.43,178.67 1028.94,178.67 1029.44,178.49 1029.94,178.32 1030.44,178.15 1030.95,177.98 1031.45,177.81 1031.95,177.81 1032.45,177.63 1032.95,177.46 1033.46,177.29 1033.96,177.12 1034.46,176.95 1034.96,176.95 1035.47,176.77 1035.97,176.60 1036.47,176.43 1036.97,176.26 1037.48,176.26 1037.98,176.09 1038.48,175.91 1038.98,175.74 1039.49,175.57 1039.99,175.40 1040.49,175.40 1040.99,175.22 1041.50,175.05 1042.00,174.88 1042.50,174.71 1043.00,174.54 1043.50,174.54 1044.01,174.36 1044.51,174.19 1045.01,174.02 1045.51,173.85 1046.02,173.68 1046.52,173.68 1047.02,173.50 1047.52,173.33 1048.03,173.16 1048.53,172.99 1049.03,172.82 1049.53,172.82 1050.04,172.64 1050.54,172.47 1051.04,172.30 1051.54,172.13 1052.05,171.96 1052.55,171.96 1053.05,171.78 1053.55,171.61 1054.05,171.44 1054.56,171.27 1055.06,171.10 1055.56,171.10 1056.06,170.92 1056.57,170.75 1057.07,170.58 1057.57,170.41 1058.07,170.24 1058.58,170.24 1059.08,170.06 1059.58,169.89 1060.08,169.72 1060.59,169.55 1061.09,169.38 1061.59,169.38 1062.09,169.20 1062.59,169.03 1063.10,168.86 1063.60,168.69 1064.10,168.69 1064.60,168.52 1065.11,168.34 1065.61,168.17 1066.11,168.00 1066.61,167.83 1067.12,167.83 1067.62,167.66 1068.12,167.48 1068.62,167.31 1069.13,167.14 1069.63,166.97 1070.13,166.97 1070.63,166.80 1071.14,166.62 1071.64,166.45 1072.14,166.28 1072.64,166.11 1073.14,166.11 1073.65,165.94 1074.15,165.76 1074.65,165.59 1075.15,165.42 1075.66,165.25 1076.16,165.25 1076.66,165.08 1077.16,164.90 1077.67,164.73 1078.17,164.56 1078.67,164.39 1079.17,164.39 1079.68,164.22 1080.18,164.04 1080.68,163.87 1081.18,163.70 1081.69,163.53 1082.19,163.53 1082.69,163.36 1083.19,163.18 1083.69,163.01 1084.20,162.84 1084.70,162.67 1085.20,162.67 1085.70,162.50 1086.21,162.32 1086.71,162.15 1087.21,161.98 1087.71,161.81 1088.22,161.81 1088.72,161.64 1089.22,161.46 1089.72,161.29 1090.23,161.12 1090.73,160.95 1091.23,160.95 1091.73,160.78 1092.23,160.60 1092.74,160.43 1093.24,160.26 1093.74,160.26 1094.24,160.09 1094.75,159.92 1095.25,159.74 1095.75,159.57 1096.25,159.40 1096.76,159.40 1097.26,159.23 1097.76,159.06 1098.26,158.88 1098.77,158.71 1099.27,158.54 1099.77,158.54 1100.27,158.37 1100.78,158.20 1101.28,158.02 1101.78,157.85 1102.28,157.68 1102.78,157.68 1103.29,157.51 1103.79,157.34 1104.29,157.16 1104.79,156.99 1105.30,156.82 1105.80,156.82 1106.30,156.65 1106.80,156.48 1107.31,156.30 1107.81,156.13 1108.31,155.96 1108.81,155.96 1109.32,155.79 1109.82,155.62 1110.32,155.44 1110.82,155.27 1111.33,155.10 1111.83,155.10 1112.33,154.93 1112.83,154.75 1113.33,154.58 1113.84,154.41 1114.34,154.24 1114.84,154.24 1115.34,154.07 1115.85,153.89 1116.35,153.72 1116.85,153.55 1117.35,153.38 1117.86,153.38 1118.36,153.21 1118.86,153.03 1119.36,152.86 1119.87,152.69 1120.37,152.52 1120.87,152.52 1121.37,152.35 1121.88,152.17 1122.38,152.00 1122.88,151.83 1123.38,151.83 1123.88,151.66 1124.39,151.49 1124.89,151.31 1125.39,151.14 1125.89,150.97 1126.40,150.97 1126.90,150.80 1127.40,150.63 1127.90,150.45 1128.41,150.28 1128.91,150.11 1129.41,150.11 1129.91,149.94 1130.42,149.77 1130.92,149.59 1131.42,149.42 1131.92,149.25 1132.42,149.25 1132.93,149.08 1133.43,148.91 1133.93,148.73 1134.43,148.56 1134.94,148.39 1135.44,148.39 1135.94,148.22 1136.44,148.05 1136.95,147.87 1137.45,147.70 1137.95,147.53 1138.45,147.53 1138.96,147.36 1139.46,147.19 1139.96,147.01 1140.46,146.84 1140.97,146.67 1141.47,146.67 1141.97,146.50 1142.47,146.33 1142.97,146.15 1143.48,145.98 1143.98,145.81 1144.48,145.81 1144.98,145.64 1145.49,145.47 1145.99,145.29 1146.49,145.12 1146.99,144.95 1147.50,144.95 1148.00,144.78 1148.50,144.61 1149.00,144.43 1149.51,144.26 1150.01,144.09 1150.51,144.09 1151.01,143.92 1151.52,143.75 1152.02,143.57 1152.52,143.40 1153.02,143.40 1153.52,143.23 1154.03,143.06 1154.53,142.89 1155.03,142.71 1155.53,142.54 1156.04,142.54 1156.54,142.37 1157.04,142.20 1157.54,142.03 1158.05,141.85 1158.55,141.68 1159.05,141.68 1159.55,141.51 1160.06,141.34 1160.56,141.17 1161.06,140.99 1161.56,140.82 1162.06,140.82 1162.57,140.65 1163.07,140.48 1163.57,140.31 1164.07,140.13 1164.58,139.96 1165.08,139.96 1165.58,139.79 1166.08,139.62 1166.59,139.45 1167.09,139.27 1167.59,139.10 1168.09,139.10 1168.60,138.93 1169.10,138.76 1169.60,138.59 1170.10,138.41 1170.61,138.24 1171.11,138.24 1171.61,138.07 1172.11,137.90 1172.61,137.73 1173.12,137.55 1173.62,137.38 1174.12,137.38 1174.62,137.21 1175.13,137.04 1175.63,136.87 1176.13,136.69 1176.63,136.52 1177.14,136.52 1177.64,136.35 1178.14,136.18 1178.64,136.01 1179.15,135.83 1179.65,135.66 1180.15,135.66 1180.65,135.49 1181.16,135.32 1181.66,135.14 1182.16,134.97 1182.66,134.97 1183.16,134.80 1183.67,134.63 1184.17,134.46 1184.67,134.28 1185.17,134.11 1185.68,134.11 1186.18,133.94 1186.68,133.77 1187.18,133.60 1187.69,133.42 1188.19,133.25 1188.69,133.25 1189.19,133.08 1189.70,132.91 1190.20,132.74 1190.70,132.56 1191.20,132.39 1191.70,132.39 1192.21,132.22 1192.71,132.05 1193.21,131.88 1193.71,131.70 1194.22,131.53 1194.72,131.53 1195.22,131.36 1195.72,131.19 1196.23,131.02 1196.73,130.84 1197.23,130.67 1197.73,130.67 1198.24,130.50 1198.74,130.33 1199.24,130.16 1199.74,129.98 1200.25,129.81 1200.75,129.81 1201.25,129.64 1201.75,129.47 1202.25,129.30 1202.76,129.12 1203.26,128.95 1203.76,128.95 1204.26,128.78 1204.77,128.61 1205.27,128.44 1205.77,128.26 1206.27,128.09 1206.78,128.09 1207.28,127.92 1207.78,127.75 1208.28,127.58 1208.79,127.40 1209.29,127.23 1209.79,127.23 1210.29,127.06 1210.80,126.89 1211.30,126.72 1211.80,126.54 1212.30,126.54 1212.80,126.37 1213.31,126.20 1213.81,126.03 1214.31,125.86 1214.81,125.68 1215.32,125.68 1215.82,125.51 1216.32,125.34 1216.82,125.17 1217.33,125.00 1217.83,124.82 1218.33,124.82 1218.83,124.65 1219.34,124.48 1219.84,124.31 1220.34,124.14 1220.84,123.96 1221.34,123.96 1221.85,123.79 1222.35,123.62 1222.85,123.45 1223.35,123.28 1223.86,123.10 1224.36,123.10 1224.86,122.93 1225.36,122.76 1225.87,122.59 1226.37,122.42 1226.87,122.24 1227.37,122.24 1227.88,122.07 1228.38,121.90 1228.88,121.73 1229.38,121.56 1229.89,121.38 1230.39,121.38 1230.89,121.21 1231.39,121.04 1231.89,120.87 1232.40,120.70 1232.90,120.52 1233.40,120.52 1233.90,120.35 1234.41,120.18 1234.91,120.01 1235.41,119.84 1235.91,119.66 1236.42,119.66 1236.92,119.49 1237.42,119.32 1237.92,119.15 1238.43,118.98 1238.93,118.80 1239.43,118.80 1239.93,118.63 1240.44,118.46 1240.94,118.29 1241.44,118.12 1241.94,118.12 1242.44,117.94 1242.95,117.77 1243.45,117.60 1243.95,117.43 1244.45,117.26 1244.96,117.26 1245.46,117.08 1245.96,116.91 1246.46,116.74 1246.97,116.57 1247.47,116.40 1247.97,116.40 1248.47,116.22 1248.98,116.05 1249.48,115.88 1249.98,115.71 1250.48,115.54 1250.98,115.54 1251.49,115.36 1251.99,115.19 1252.49,115.02 1252.99,114.85 1253.50,114.67 1254.00,114.67 1254.50,114.50 1255.00,114.33 1255.51,114.16 1256.01,113.99 1256.51,113.81 1257.01,113.81 1257.52,113.64 1258.02,113.47 1258.52,113.30 1259.02,113.13 1259.53,112.95 1260.03,112.95 1260.53,112.78 1261.03,112.61 1261.53,112.44 1262.04,112.27 1262.54,112.09 1263.04,112.09 1263.54,111.92 1264.05,111.75 1264.55,111.58 1265.05,111.41 1265.55,111.23 1266.06,111.23 1266.56,111.06 1267.06,110.89 1267.56,110.72 1268.07,110.55 1268.57,110.37 1269.07,110.37 1269.57,110.20 1270.08,110.03 1270.58,109.86 1271.08,109.69 1271.58,109.69 1272.08,109.51 1272.59,109.34 1273.09,109.17 1273.59,109.00 1274.09,108.83 1274.60,108.83 1275.10,108.65 1275.60,108.48 1276.10,108.31 1276.61,108.14 1277.11,107.97 1277.61,107.97 1278.11,107.79 1278.62,107.62 1279.12,107.45 1279.62,107.28 1280.12,107.11 1280.62,107.11 1281.13,106.93 1281.63,106.76 1282.13,106.59 1282.63,106.42 1283.14,106.25 1283.64,106.25 1284.14,106.07 1284.64,105.90 1285.15,105.73 1285.65,105.56 1286.15,105.39 1286.65,105.39 1287.16,105.21 1287.66,105.04 1288.16,104.87 1288.66,104.70 1289.17,104.53 1289.67,104.53 1290.17,104.35 1290.67,104.18 1291.17,104.01 1291.68,103.84 1292.18,103.67 1292.68,103.67 1293.18,103.49 1293.69,103.32 1294.19,103.15 1294.69,102.98 1295.19,102.81 1295.70,102.81 1296.20,102.63 1296.70,102.46 1297.20,102.29 1297.71,102.12 1298.21,101.95 1298.71,101.95 1299.21,101.77 1299.72,101.60 1300.22,101.43 1300.72,101.26 1301.22,101.26 1301.72,101.09 1302.23,100.91 1302.73,100.74 1303.23,100.57 1303.73,100.40 1304.24,100.40 1304.74,100.23 1305.24,100.05 1305.74,99.88 1306.25,99.71 1306.75,99.54 1307.25,99.54 1307.75,99.37 1308.26,99.19 1308.76,99.02 1309.26,98.85 1309.76,98.68 1310.27,98.68 1310.77,98.51 1311.27,98.33 1311.77,98.16 1312.27,97.99 1312.78,97.82 1313.28,97.82 1313.78,97.65 1314.28,97.47 1314.79,97.30 1315.29,97.13 1315.79,96.96 1316.29,96.96 1316.80,96.79 1317.30,96.61 1317.80,96.44 1318.30,96.27 1318.81,96.10 1319.31,96.10 1319.81,95.93 1320.31,95.75 1320.81,95.58 1321.32,95.41 1321.82,95.24 1322.32,95.24 1322.82,95.06 1323.33,94.89 1323.83,94.72 1324.33,94.55 1324.83,94.38 1325.34,94.38 1325.84,94.20 1326.34,94.03 1326.84,93.86 1327.35,93.69 1327.85,93.52 1328.35,93.52 1328.85,93.34 1329.36,93.17 1329.86,93.00 1330.36,92.83 1330.86,92.83 1331.36,92.66 1331.87,92.48 1332.37,92.31 1332.87,92.14 1333.37,91.97 1333.88,91.97 1334.38,91.80 1334.88,91.62 1335.38,91.45 1335.89,91.28 1336.39,91.11 1336.89,91.11 1337.39,90.94 1337.90,90.76 1338.40,90.59 1338.90,90.42 1339.40,90.25 1339.91,90.25 1340.41,90.08 1340.91,89.90 1341.41,89.73 1341.91,89.56 1342.42,89.39 1342.92,89.39 1343.42,89.22 1343.92,89.04 1344.43,88.87 1344.93,88.70 1345.43,88.53 1345.93,88.53 1346.44,88.36 1346.94,88.18 1347.44,88.01 1347.94,87.84 1348.45,87.67 1348.95,87.67 1349.45,87.50 1349.95,87.32 1350.45,87.15 1350.96,86.98 1351.46,86.81 1351.96,86.81 1352.46,86.64 1352.97,86.46 1353.47,86.29 1353.97,86.12 1354.47,85.95 1354.98,85.95 1355.48,85.78 1355.98,85.60 1356.48,85.43 1356.99,85.26 1357.49,85.09 1357.99,85.09 1358.49,84.92 1359.00,84.74 1359.50,84.57 1360.00,84.40" /><polyline fill="none" stroke="#c62828" stroke-width="2" points="650.65,277.06 650.90,277.06 651.15,277.06 651.40,277.06 651.65,277.06 651.90,277.06 652.16,277.06 652.41,277.06 652.66,277.06 652.91,277.06 653.16,277.06 653.41,277.06 653.66,277.06 653.91,277.06 654.17,277.06 654.42,277.06 654.67,277.06 654.92,277.06 655.17,277.06 655.42,277.06 655.67,277.06 655.92,277.06 656.17,277.06 656.43,277.06 656.68,277.06 656.93,277.06 657.18,277.06 657.43,277.06 657.68,277.06 657.93,277.06 658.18,277.06 658.44,277.06 658.69,277.06 658.94,277.06 659.19,277.06 659.44,277.06 659.69,277.06 659.94,277.06 660.19,277.06 660.45,277.06 660.70,277.06 660.95,277.06 661.20,277.06 661.45,277.06 661.70,277.06 661.95,277.06 662.20,277.06 662.45,277.06 662.71,277.06 662.96,277.06 663.21,277.06 663.46,277.06 663.71,277.06 663.96,277.06 664.21,277.06 664.46,277.06 664.72,277.06 664.97,277.06 665.22,277.06 665.47,276.89 665.72,276.89 665.97,276.89 666.22,276.72 666.47,276.72 666.72,276.54 666.98,276.54 667.23,276.54 667.48,276.37 667.73,276.37 667.98,276.20 668.23,276.20 668.48,276.20 668.73,276.03 668.99,276.03 669.24,275.86 669.49,275.86 669.74,275.68 669.99,275.68 670.24,275.68 670.49,275.51 670.74,275.51 670.99,275.34 671.25,275.34 671.50,275.34 671.75,275.17 672.00,275.17 672.25,274.99 672.50,274.99 672.75,274.82 673.00,274.82 673.26,274.82 673.51,274.65 673.76,274.65 674.01,274.48 674.26,274.48 674.51,274.48 674.76,274.31 675.01,274.31 675.27,274.13 675.52,274.13 675.77,273.96 676.02,273.96 676.27,273.96 676.52,273.79 676.77,273.79 677.02,273.62 677.27,273.62 677.53,273.62 677.78,273.45 678.03,273.45 678.28,273.27 678.53,273.27 678.78,273.10 679.03,273.10 679.28,273.10 679.54,272.93 679.79,272.93 680.04,272.76 680.29,272.76 680.54,272.76 680.79,272.59 681.04,272.59 681.29,272.41 681.54,272.41 681.80,272.24 682.05,272.24 682.30,272.24 682.55,272.07 682.80,272.07 683.05,271.90 683.30,271.90 683.55,271.90 683.81,271.73 684.06,271.73 684.31,271.55 684.56,271.55 684.81,271.55 685.06,271.38 685.31,271.38 685.56,271.21 685.81,271.21 686.07,271.04 686.32,271.04 686.57,271.04 686.82,270.87 687.07,270.87 687.32,270.69 687.57,270.69 687.82,270.69 688.08,270.52 688.33,270.52 688.58,270.35 688.83,270.35 689.08,270.18 689.33,270.18 689.58,270.18 689.83,270.01 690.09,270.01 690.34,269.83 690.59,269.83 690.84,269.83 691.09,269.66 691.34,269.66 691.59,269.49 691.84,269.49 692.09,269.32 692.35,269.32 692.60,269.32 692.85,269.15 693.10,269.15 693.35,268.97 693.60,268.97 693.85,268.97 694.10,268.80 694.36,268.80 694.61,268.63 694.86,268.63 695.11,268.46 695.36,268.46 695.61,268.46 695.86,268.29 696.11,268.29 696.36,268.11 696.62,268.11 696.87,268.11 697.12,267.94 697.37,267.94 697.62,267.77 697.87,267.77 698.12,267.77 698.37,267.60 698.63,267.60 698.88,267.43 699.13,267.43 699.38,267.25 699.63,267.25 699.88,267.25 700.13,267.08 700.38,267.08 700.63,266.91 700.89,266.91 701.14,266.91 701.39,266.74 701.64,266.74 701.89,266.57 702.14,266.57 702.39,266.39 702.64,266.39 702.90,266.39 703.15,266.22 703.40,266.22 703.65,266.05 703.90,266.05 704.15,266.05 704.40,265.88 704.65,265.88 704.91,265.71 705.16,265.71 705.41,265.53 705.66,265.53 705.91,265.53 706.16,265.36 706.41,265.36 706.66,265.19 706.91,265.19 707.17,265.19 707.42,265.02 707.67,265.02 707.92,264.85 708.17,264.85 708.42,264.67 708.67,264.67 708.92,264.67 709.18,264.50 709.43,264.50 709.68,264.33 709.93,264.33 710.18,264.33 710.43,264.16 710.68,264.16 710.93,263.99 711.18,263.99 711.44,263.81 711.69,263.81 711.94,263.81 712.19,263.64 712.44,263.64 712.69,263.47 712.94,263.47 713.19,263.47 713.45,263.30 713.70,263.30 713.95,263.13 714.20,263.13 714.45,263.13 714.70,262.95 714.95,262.95 715.20,262.78 715.45,262.78 715.71,262.61 715.96,262.61 716.21,262.61 716.46,262.44 716.71,262.44 716.96,262.27 717.21,262.27 717.46,262.27 717.72,262.09 717.97,262.09 718.22,261.92 718.47,261.92 718.72,261.75 718.97,261.75 719.22,261.75 719.47,261.58 719.73,261.58 719.98,261.41 720.23,261.41 720.48,261.41 720.73,261.23 720.98,261.23 721.23,261.06 721.48,261.06 721.73,260.89 721.99,260.89 722.24,260.89 722.49,260.72 722.74,260.72 722.99,260.55 723.24,260.55 723.49,260.55 723.74,260.37 724.00,260.37 724.25,260.20 724.50,260.20 724.75,260.03 725.00,260.03 725.25,260.03 725.50,259.86 725.75,259.86 726.00,259.69 726.26,259.69 726.51,259.69 726.76,259.51 727.01,259.51 727.26,259.34 727.51,259.34 727.76,259.34 728.01,259.17 728.27,259.17 728.52,259.00 728.77,259.00 729.02,258.83 729.27,258.83 729.52,258.83 729.77,258.65 730.02,258.65 730.27,258.48 730.53,258.48 730.78,258.48 731.03,258.31 731.28,258.31 731.53,258.14 731.78,258.14 732.03,257.97 732.28,257.97 732.54,257.97 732.79,257.79 733.04,257.79 733.29,257.62 733.54,257.62 733.79,257.62 734.04,257.45 734.29,257.45 734.55,257.28 734.80,257.28 735.05,257.11 735.30,257.11 735.55,257.11 735.80,256.93 736.05,256.93 736.30,256.76 736.55,256.76 736.81,256.76 737.06,256.59 737.31,256.59 737.56,256.42 737.81,256.42 738.06,256.25 738.31,256.25 738.56,256.25 738.82,256.07 739.07,256.07 739.32,255.90 739.57,255.90 739.82,255.90 740.07,255.73 740.32,255.73 740.57,255.56 740.82,255.56 741.08,255.38 741.33,255.38 741.58,255.38 741.83,255.21 742.08,255.21 742.33,255.04 742.58,255.04 742.83,255.04 743.09,254.87 743.34,254.87 743.59,254.70 743.84,254.70 744.09,254.70 744.34,254.52 744.59,254.52 744.84,254.35 745.09,254.35 745.35,254.18 745.60,254.18 745.85,254.18 746.10,254.01 746.35,254.01 746.60,253.84 746.85,253.84 747.10,253.84 747.36,253.66 747.61,253.66 747.86,253.49 748.11,253.49 748.36,253.32 748.61,253.32 748.86,253.32 749.11,253.15 749.37,253.15 749.62,252.98 749.87,252.98 750.12,252.98 750.37,252.80 750.62,252.80 750.87,252.63 751.12,252.63 751.37,252.46 751.63,252.46 751.88,252.46 752.13,252.29 752.38,252.29 752.63,252.12 752.88,252.12 753.13,252.12 753.38,251.94 753.64,251.94 753.89,251.77 754.14,251.77 754.39,251.60 754.64,251.60 754.89,251.60 755.14,251.43 755.39,251.43 755.64,251.26 755.90,251.26 756.15,251.26 756.40,251.08 756.65,251.08 756.90,250.91 757.15,250.91 757.40,250.91 757.65,250.74 757.91,250.74 758.16,250.57 758.41,250.57 758.66,250.40 758.91,250.40 759.16,250.40 759.41,250.22 759.66,250.22 759.91,250.05 760.17,250.05 760.42,250.05 760.67,249.88 760.92,249.88 761.17,249.71 761.42,249.71 761.67,249.54 761.92,249.54 762.18,249.54 762.43,249.36 762.68,249.36 762.93,249.19 763.18,249.19 763.43,249.19 763.68,249.02 763.93,249.02 764.19,248.85 764.44,248.85 764.69,248.68 764.94,248.68 765.19,248.68 765.44,248.50 765.69,248.50 765.94,248.33 766.19,248.33 766.45,248.33 766.70,248.16 766.95,248.16 767.20,247.99 767.45,247.99 767.70,247.82 767.95,247.82 768.20,247.82 768.46,247.64 768.71,247.64 768.96,247.47 769.21,247.47 769.46,247.47 769.71,247.30 769.96,247.30 770.21,247.13 770.46,247.13 770.72,247.13 770.97,246.96 771.22,246.96 771.47,246.78 771.72,246.78 771.97,246.61 772.22,246.61 772.47,246.61 772.73,246.44 772.98,246.44 773.23,246.27 773.48,246.27 773.73,246.27 773.98,246.10 774.23,246.10 774.48,245.92 774.73,245.92 774.99,245.75 775.24,245.75 775.49,245.75 775.74,245.58 775.99,245.58 776.24,245.41 776.49,245.41 776.74,245.41 777.00,245.24 777.25,245.24 777.50,245.06 777.75,245.06 778.00,244.89 778.25,244.89 778.50,244.89 778.75,244.72 779.01,244.72 779.26,244.55 779.51,244.55 779.76,244.55 780.01,244.38 780.26,244.38 780.51,244.20 780.76,244.20 781.01,244.03 781.27,244.03 781.52,244.03 781.77,243.86 782.02,243.86 782.27,243.69 782.52,243.69 782.77,243.69 783.02,243.52 783.28,243.52 783.53,243.34 783.78,243.34 784.03,243.17 784.28,243.17 784.53,243.17 784.78,243.00 785.03,243.00 785.28,242.83 785.54,242.83 785.79,242.83 786.04,242.66 786.29,242.66 786.54,242.48 786.79,242.48 787.04,242.48 787.29,242.31 787.55,242.31 787.80,242.14 788.05,242.14 788.30,241.97 788.55,241.97 788.80,241.97 789.05,241.80 789.30,241.80 789.55,241.62 789.81,241.62 790.06,241.62 790.31,241.45 790.56,241.45 790.81,241.28 791.06,241.28 791.31,241.11 791.56,241.11 791.82,241.11 792.07,240.94 792.32,240.94 792.57,240.76 792.82,240.76 793.07,240.76 793.32,240.59 793.57,240.59 793.83,240.42 794.08,240.42 794.33,240.25 794.58,240.25 794.83,240.25 795.08,240.08 795.33,240.08 795.58,239.90 795.83,239.90 796.09,239.90 796.34,239.73 796.59,239.73 796.84,239.56 797.09,239.56 797.34,239.39 797.59,239.39 797.84,239.39 798.10,239.22 798.35,239.22 798.60,239.04 798.85,239.04 799.10,239.04 799.35,238.87 799.60,238.87 799.85,238.70 800.10,238.70 800.36,238.70 800.61,238.53 800.86,238.53 801.11,238.36 801.36,238.36 801.61,238.18 801.86,238.18 802.11,238.18 802.37,238.01 802.62,238.01 802.87,237.84 803.12,237.84 803.37,237.84 803.62,237.67 803.87,237.67 804.12,237.50 804.38,237.50 804.63,237.32 804.88,237.32 805.13,237.32 805.38,237.15 805.63,237.15 805.88,236.98 806.13,236.98 806.38,236.98 806.64,236.81 806.89,236.81 807.14,236.64 807.39,236.64 807.64,236.46 807.89,236.46 808.14,236.46 808.39,236.29 808.65,236.29 808.90,236.12 809.15,236.12 809.40,236.12 809.65,235.95 809.90,235.95 810.15,235.78 810.40,235.78 810.65,235.60 810.91,235.60 811.16,235.60 811.41,235.43 811.66,235.43 811.91,235.26 812.16,235.26 812.41,235.26 812.66,235.09 812.92,235.09 813.17,234.91 813.42,234.91 813.67,234.74 813.92,234.74 814.17,234.74 814.42,234.57 814.67,234.57 814.92,234.40 815.18,234.40 815.43,234.40 815.68,234.23 815.93,234.23 816.18,234.05 816.43,234.05 816.68,234.05 816.93,233.88 817.19,233.88 817.44,233.71" /><text x="98" y="68" font-family="sans-serif" font-size="18" fill="#444" text-anchor="start">Global trend (dense sampling)</text><line x1="90.00" y1="550.00" x2="90.00" y2="910.00" stroke="#ececec" stroke-width="1"/><text x="90.00" y="932.00" font-family="sans-serif" font-size="12" text-anchor="middle">-20</text><line x1="399.76" y1="550.00" x2="399.76" y2="910.00" stroke="#ececec" stroke-width="1"/><text x="399.76" y="932.00" font-family="sans-serif" font-size="12" text-anchor="middle">-10</text><line x1="709.51" y1="550.00" x2="709.51" y2="910.00" stroke="#ececec" stroke-width="1"/><text x="709.51" y="932.00" font-family="sans-serif" font-size="12" text-anchor="middle">0</text><line x1="1019.27" y1="550.00" x2="1019.27" y2="910.00" stroke="#ececec" stroke-width="1"/><text x="1019.27" y="932.00" font-family="sans-serif" font-size="12" text-anchor="middle">10</text><line x1="1329.02" y1="550.00" x2="1329.02" y2="910.00" stroke="#ececec" stroke-width="1"/><text x="1329.02" y="932.00" font-family="sans-serif" font-size="12" text-anchor="middle">20</text><line x1="90.00" y1="887.80" x2="1360.00" y2="887.80" stroke="#ececec" stroke-width="1"/><text x="82.00" y="891.80" font-family="sans-serif" font-size="12" text-anchor="end">-0.30</text><line x1="90.00" y1="782.24" x2="1360.00" y2="782.24" stroke="#ececec" stroke-width="1"/><text x="82.00" y="786.24" font-family="sans-serif" font-size="12" text-anchor="end">-0.20</text><line x1="90.00" y1="676.68" x2="1360.00" y2="676.68" stroke="#ececec" stroke-width="1"/><text x="82.00" y="680.68" font-family="sans-serif" font-size="12" text-anchor="end">-0.10</text><line x1="90.00" y1="571.11" x2="1360.00" y2="571.11" stroke="#ececec" stroke-width="1"/><text x="82.00" y="575.11" font-family="sans-serif" font-size="12" text-anchor="end">0.00</text><line x1="90.00" y1="550.00" x2="90.00" y2="910.00" stroke="#222" stroke-width="2"/><line x1="90.00" y1="910.00" x2="1360.00" y2="910.00" stroke="#222" stroke-width="2"/><text x="725" y="958" font-family="sans-serif" font-size="16" text-anchor="middle">k where x = 10^k</text><text x="22" y="730" font-family="sans-serif" font-size="16" text-anchor="middle" transform="rotate(-90 22,730)">Residual vs baseline</text><polyline fill="none" stroke="#1565c0" stroke-width="1.8" points="90.00,749.52 93.87,749.52 93.87,881.48 97.74,881.48 97.74,695.65 101.62,695.65 101.62,827.61 105.49,827.61 105.49,641.79 109.36,641.79 109.36,773.74 113.23,773.74 113.23,587.92 117.10,587.92 117.10,719.87 120.98,719.87 120.98,851.82 124.85,851.82 124.85,666.00 128.72,666.00 128.72,797.96 132.59,797.96 132.59,612.13 136.46,612.13 136.46,744.09 140.34,744.09 140.34,876.04 144.21,876.04 144.21,690.22 148.08,690.22 148.08,822.17 151.95,822.17 151.95,636.35 155.82,636.35 155.82,768.30 159.70,768.30 159.70,582.48 163.57,582.48 163.57,714.43 167.44,714.43 167.44,846.39 171.31,846.39 171.31,660.57 175.18,660.57 175.18,792.52 179.05,792.52 179.05,606.70 182.93,606.70 182.93,738.65 186.80,738.65 186.80,870.60 190.67,870.60 190.67,684.78 194.54,684.78 194.54,816.74 198.41,816.74 198.41,630.91 202.29,630.91 202.29,762.87 206.16,762.87 206.16,577.04 210.03,577.04 210.03,709.00 213.90,709.00 213.90,840.95 217.77,840.95 217.77,655.13 221.65,655.13 221.65,787.08 225.52,787.08 225.52,601.26 229.39,601.26 229.39,733.21 233.26,733.21 233.26,865.17 237.13,865.17 237.13,679.35 241.01,679.35 241.01,811.30 244.88,811.30 244.88,625.48 248.75,625.48 248.75,757.43 252.62,757.43 252.62,571.61 256.49,571.61 256.49,703.56 260.37,703.56 260.37,835.51 264.24,835.51 264.24,649.69 268.11,649.69 268.11,781.65 271.98,781.65 271.98,595.82 275.85,595.82 275.85,727.78 279.73,727.78 279.73,859.73 283.60,859.73 283.60,673.91 287.47,673.91 287.47,805.86 291.34,805.86 291.34,620.04 295.21,620.04 295.21,751.99 299.09,751.99 299.09,883.95 302.96,883.95 302.96,698.13 306.83,698.13 306.83,830.08 310.70,830.08 310.70,644.26 314.57,644.26 314.57,776.21 318.45,776.21 318.45,590.39 322.32,590.39 322.32,722.34 326.19,722.34 326.19,854.29 330.06,854.29 330.06,668.47 333.93,668.47 333.93,800.43 337.80,800.43 337.80,614.60 341.68,614.60 341.68,746.56 345.55,746.56 345.55,878.51 349.42,878.51 349.42,692.69 353.29,692.69 353.29,824.64 357.16,824.64 357.16,638.82 361.04,638.82 361.04,770.77 364.91,770.77 364.91,584.95 368.78,584.95 368.78,716.90 372.65,716.90 372.65,848.86 376.52,848.86 376.52,663.04 380.40,663.04 380.40,794.99 384.27,794.99 384.27,609.17 388.14,609.17 388.14,741.12 392.01,741.12 392.01,873.07 395.88,873.07 395.88,687.25 399.76,687.25 399.76,819.21 403.63,819.21 403.63,633.38 407.50,633.38 407.50,765.34 411.37,765.34 411.37,579.52 415.24,579.52 415.24,711.47 419.12,711.47 419.12,843.42 422.99,843.42 422.99,657.60 426.86,657.60 426.86,789.55 430.73,789.55 430.73,603.73 434.60,603.73 434.60,735.68 438.48,735.68 438.48,867.64 442.35,867.64 442.35,681.82 446.22,681.82 446.22,813.77 450.09,813.77 450.09,627.95 453.96,627.95 453.96,759.90 457.84,759.90 457.84,574.08 461.71,574.08 461.71,706.03 465.58,706.03 465.58,837.99 469.45,837.99 469.45,652.16 473.32,652.16 473.32,784.12 477.20,784.12 477.20,598.29 481.07,598.29 481.07,730.25 484.94,730.25 484.94,862.20 488.81,862.20 488.81,676.38 492.68,676.38 492.68,808.33 496.55,808.33 496.55,622.51 500.43,622.51 500.43,754.46 504.30,754.46 504.30,886.42 508.17,886.42 508.17,700.60 512.04,700.60 512.04,832.55 515.91,832.55 515.91,646.73 519.79,646.73 519.79,778.68 523.66,778.68 523.66,592.86 527.53,592.86 527.53,724.81 531.40,724.81 531.40,856.76 535.27,856.76 535.27,670.94 539.15,670.94 539.15,802.90 543.02,802.90 543.02,617.07 546.89,617.07 546.89,749.03 550.76,749.03 550.76,880.98 554.63,880.98 554.63,695.16 558.51,695.16 558.51,827.11 562.38,827.11 562.38,641.29 566.25,641.29 566.25,773.24 570.12,773.24 570.12,587.42 573.99,587.42 573.99,719.38 577.87,719.38 577.87,851.33 581.74,851.33 581.74,665.51 585.61,665.51 585.61,797.46 589.48,797.46 589.48,611.64 593.35,611.64 593.35,743.59 597.23,743.59 597.23,875.54 601.10,875.54 601.10,689.72 604.97,689.72 604.97,821.68 608.84,821.68 608.84,635.85 612.71,635.85 612.71,767.81 616.59,767.81 616.59,581.99 620.46,581.99 620.46,713.94 624.33,713.94 624.33,845.89 628.20,845.89 628.20,660.07 632.07,660.07 632.07,792.02 635.95,792.02 635.95,606.20 639.82,606.20 639.82,738.15 643.69,738.15 643.69,870.11 647.56,870.11 647.56,684.29 651.43,684.29 651.43,816.24 655.30,816.24 655.30,630.42 659.18,630.42 659.18,762.37 663.05,762.37 663.05,576.55 666.92,576.55 666.92,708.50 670.79,708.50 670.79,840.46 674.66,840.46 674.66,654.63 678.54,654.63 678.54,786.59 682.41,786.59 682.41,600.77 686.28,600.77 686.28,732.72 690.15,732.72 690.15,864.67 694.02,864.67 694.02,678.85 697.90,678.85 697.90,810.80 701.77,810.80 701.77,624.98 705.64,624.98 705.64,756.93 709.51,756.93 709.51,571.11 713.38,571.11 713.38,703.07 717.26,703.07 717.26,835.02 721.13,835.02 721.13,649.20 725.00,649.20 725.00,781.15 728.87,781.15 728.87,595.33 732.74,595.33 732.74,727.28 736.62,727.28 736.62,859.23 740.49,859.23 740.49,673.41 744.36,673.41 744.36,805.37 748.23,805.37 748.23,619.54 752.10,619.54 752.10,751.50 755.98,751.50 755.98,883.45 759.85,883.45 759.85,697.63 763.72,697.63 763.72,829.58 767.59,829.58 767.59,643.76 771.46,643.76 771.46,775.71 775.34,775.71 775.34,589.89 779.21,589.89 779.21,721.85 783.08,721.85 783.08,853.80 786.95,853.80 786.95,667.98 790.82,667.98 790.82,799.93 794.70,799.93 794.70,614.11 798.57,614.11 798.57,746.06 802.44,746.06 802.44,878.01 806.31,878.01 806.31,692.19 810.18,692.19 810.18,824.15 814.05,824.15 814.05,638.32 817.93,638.32 817.93,770.28 821.80,770.28 821.80,584.46 825.67,584.46 825.67,716.41 829.54,716.41 829.54,848.36 833.41,848.36 833.41,662.54 837.29,662.54 837.29,794.49 841.16,794.49 841.16,608.67 845.03,608.67 845.03,740.62 848.90,740.62 848.90,872.58 852.77,872.58 852.77,686.76 856.65,686.76 856.65,818.71 860.52,818.71 860.52,632.89 864.39,632.89 864.39,764.84 868.26,764.84 868.26,579.02 872.13,579.02 872.13,710.97 876.01,710.97 876.01,842.93 879.88,842.93 879.88,657.10 883.75,657.10 883.75,789.06 887.62,789.06 887.62,603.24 891.49,603.24 891.49,735.19 895.37,735.19 895.37,867.14 899.24,867.14 899.24,681.32 903.11,681.32 903.11,813.27 906.98,813.27 906.98,627.45 910.85,627.45 910.85,759.40 914.73,759.40 914.73,573.58 918.60,573.58 918.60,705.54 922.47,705.54 922.47,837.49 926.34,837.49 926.34,651.67 930.21,651.67 930.21,783.62 934.09,783.62 934.09,597.80 937.96,597.80 937.96,729.75 941.83,729.75 941.83,861.71 945.70,861.71 945.70,675.88 949.57,675.88 949.57,807.84 953.45,807.84 953.45,622.01 957.32,622.01 957.32,753.97 961.19,753.97 961.19,885.92 965.06,885.92 965.06,700.10 968.93,700.10 968.93,832.05 972.80,832.05 972.80,646.23 976.68,646.23 976.68,778.18 980.55,778.18 980.55,592.36 984.42,592.36 984.42,724.32 988.29,724.32 988.29,856.27 992.16,856.27 992.16,670.45 996.04,670.45 996.04,802.40 999.91,802.40 999.91,616.58 1003.78,616.58 1003.78,748.53 1007.65,748.53 1007.65,880.48 1011.52,880.48 1011.52,694.66 1015.40,694.66 1015.40,826.62 1019.27,826.62 1019.27,640.79 1023.14,640.79 1023.14,772.75 1027.01,772.75 1027.01,586.93 1030.88,586.93 1030.88,718.88 1034.76,718.88 1034.76,850.83 1038.63,850.83 1038.63,665.01 1042.50,665.01 1042.50,796.96 1046.37,796.96 1046.37,611.14 1050.24,611.14 1050.24,743.10 1054.12,743.10 1054.12,875.05 1057.99,875.05 1057.99,689.23 1061.86,689.23 1061.86,821.18 1065.73,821.18 1065.73,635.36 1069.60,635.36 1069.60,767.31 1073.48,767.31 1073.48,581.49 1077.35,581.49 1077.35,713.44 1081.22,713.44 1081.22,845.40 1085.09,845.40 1085.09,659.57 1088.96,659.57 1088.96,791.53 1092.84,791.53 1092.84,605.71 1096.71,605.71 1096.71,737.66 1100.58,737.66 1100.58,869.61 1104.45,869.61 1104.45,683.79 1108.32,683.79 1108.32,815.74 1112.20,815.74 1112.20,629.92 1116.07,629.92 1116.07,761.87 1119.94,761.87 1119.94,576.05 1123.81,576.05 1123.81,708.01 1127.68,708.01 1127.68,839.96 1131.55,839.96 1131.55,654.14 1135.43,654.14 1135.43,786.09 1139.30,786.09 1139.30,600.27 1143.17,600.27 1143.17,732.22 1147.04,732.22 1147.04,864.18 1150.91,864.18 1150.91,678.35 1154.79,678.35 1154.79,810.31 1158.66,810.31 1158.66,624.49 1162.53,624.49 1162.53,756.44 1166.40,756.44 1166.40,888.39 1170.27,888.39 1170.27,702.57 1174.15,702.57 1174.15,834.52 1178.02,834.52 1178.02,648.70 1181.89,648.70 1181.89,780.65 1185.76,780.65 1185.76,594.83 1189.63,594.83 1189.63,726.79 1193.51,726.79 1193.51,858.74 1197.38,858.74 1197.38,672.92 1201.25,672.92 1201.25,804.87 1205.12,804.87 1205.12,619.05 1208.99,619.05 1208.99,751.00 1212.87,751.00 1212.87,882.96 1216.74,882.96 1216.74,697.13 1220.61,697.13 1220.61,829.09 1224.48,829.09 1224.48,643.26 1228.35,643.26 1228.35,775.22 1232.23,775.22 1232.23,589.40 1236.10,589.40 1236.10,721.35 1239.97,721.35 1239.97,853.30 1243.84,853.30 1243.84,667.48 1247.71,667.48 1247.71,799.43 1251.59,799.43 1251.59,613.61 1255.46,613.61 1255.46,745.57 1259.33,745.57 1259.33,877.52 1263.20,877.52 1263.20,691.70 1267.07,691.70 1267.07,823.65 1270.95,823.65 1270.95,637.83 1274.82,637.83 1274.82,769.78 1278.69,769.78 1278.69,583.96 1282.56,583.96 1282.56,715.91 1286.43,715.91 1286.43,847.87 1290.30,847.87 1290.30,662.04 1294.18,662.04 1294.18,794.00 1298.05,794.00 1298.05,608.18 1301.92,608.18 1301.92,740.13 1305.79,740.13 1305.79,872.08 1309.66,872.08 1309.66,686.26 1313.54,686.26 1313.54,818.21 1317.41,818.21 1317.41,632.39 1321.28,632.39 1321.28,764.35 1325.15,764.35 1325.15,578.52 1329.02,578.52 1329.02,710.48 1332.90,710.48 1332.90,842.43 1336.77,842.43 1336.77,656.61 1340.64,656.61 1340.64,788.56 1344.51,788.56 1344.51,602.74 1348.38,602.74 1348.38,734.69 1352.26,734.69 1352.26,866.65 1356.13,866.65 1356.13,680.82" /><polyline fill="none" stroke="#c62828" stroke-width="1.8" points="90.00,749.52 93.87,749.52 93.87,881.48 97.74,881.48 97.74,695.65 101.62,695.65 101.62,827.61 105.49,827.61 105.49,641.79 109.36,641.79 109.36,773.74 113.23,773.74 113.23,587.92 117.10,587.92 117.10,719.87 120.98,719.87 120.98,851.82 124.85,851.82 124.85,666.00 128.72,666.00 128.72,797.96 132.59,797.96 132.59,612.13 136.46,612.13 136.46,744.09 140.34,744.09 140.34,876.04 144.21,876.04 144.21,690.22 148.08,690.22 148.08,822.17 151.95,822.17 151.95,636.35 155.82,636.35 155.82,768.30 159.70,768.30 159.70,582.48 163.57,582.48 163.57,714.43 167.44,714.43 167.44,846.39 171.31,846.39 171.31,660.57 175.18,660.57 175.18,792.52 179.05,792.52 179.05,606.70 182.93,606.70 182.93,738.65 186.80,738.65 186.80,870.60 190.67,870.60 190.67,684.78 194.54,684.78 194.54,816.74 198.41,816.74 198.41,630.91 202.29,630.91 202.29,762.87 206.16,762.87 206.16,577.04 210.03,577.04 210.03,709.00 213.90,709.00 213.90,840.95 217.77,840.95 217.77,655.13 221.65,655.13 221.65,787.08 225.52,787.08 225.52,601.26 229.39,601.26 229.39,733.21 233.26,733.21 233.26,865.17 237.13,865.17 237.13,679.35 241.01,679.35 241.01,811.30 244.88,811.30 244.88,625.48 248.75,625.48 248.75,757.43 252.62,757.43 252.62,571.61 256.49,571.61 256.49,703.56 260.37,703.56 260.37,835.51 264.24,835.51 264.24,649.69 268.11,649.69 268.11,781.65 271.98,781.65 271.98,595.82 275.85,595.82 275.85,727.78 279.73,727.78 279.73,859.73 283.60,859.73 283.60,673.91 287.47,673.91 287.47,805.86 291.34,805.86 291.34,620.04 295.21,620.04 295.21,751.99 299.09,751.99 299.09,883.95 302.96,883.95 302.96,698.13 306.83,698.13 306.83,830.08 310.70,830.08 310.70,644.26 314.57,644.26 314.57,776.21 318.45,776.21 318.45,590.39 322.32,590.39 322.32,722.34 326.19,722.34 326.19,854.29 330.06,854.29 330.06,668.47 333.93,668.47 333.93,800.43 337.80,800.43 337.80,614.60 341.68,614.60 341.68,746.56 345.55,746.56 345.55,878.51 349.42,878.51 349.42,692.69 353.29,692.69 353.29,824.64 357.16,824.64 357.16,638.82 361.04,638.82 361.04,770.77 364.91,770.77 364.91,584.95 368.78,584.95 368.78,716.90 372.65,716.90 372.65,848.86 376.52,848.86 376.52,663.04 380.40,663.04 380.40,794.99 384.27,794.99 384.27,609.17 388.14,609.17 388.14,741.12 392.01,741.12 392.01,873.07 395.88,873.07 395.88,687.25 399.76,687.25 399.76,819.21 403.63,819.21 403.63,633.38 407.50,633.38 407.50,765.34 411.37,765.34 411.37,579.52 415.24,579.52 415.24,711.47 419.12,711.47 419.12,843.42 422.99,843.42 422.99,657.60 426.86,657.60 426.86,789.55 430.73,789.55 430.73,603.73 434.60,603.73 434.60,735.68 438.48,735.68 438.48,867.64 442.35,867.64 442.35,681.82 446.22,681.82 446.22,813.77 450.09,813.77 450.09,627.95 453.96,627.95 453.96,759.90 457.84,759.90 457.84,574.08 461.71,574.08 461.71,706.03 465.58,706.03 465.58,837.99 469.45,837.99 469.45,652.16 473.32,652.16 473.32,784.12 477.20,784.12 477.20,598.29 481.07,598.29 481.07,730.25 484.94,730.25 484.94,862.20 488.81,862.20 488.81,676.38 492.68,676.38 492.68,808.33 496.55,808.33 496.55,622.51 500.43,622.51 500.43,754.46 504.30,754.46 504.30,886.42 508.17,886.42 508.17,700.60 512.04,700.60 512.04,832.55 515.91,832.55 515.91,646.73 519.79,646.73 519.79,778.68 523.66,778.68 523.66,592.86 527.53,592.86 527.53,724.81 531.40,724.81 531.40,856.76 535.27,856.76 535.27,670.94 539.15,670.94 539.15,802.90 543.02,802.90 543.02,617.07 546.89,617.07 546.89,749.03 550.76,749.03 550.76,880.98 554.63,880.98 554.63,695.16 558.51,695.16 558.51,827.11 562.38,827.11 562.38,641.29 566.25,641.29 566.25,773.24 570.12,773.24 570.12,587.42 573.99,587.42 573.99,719.38 577.87,719.38 577.87,851.33 581.74,851.33 581.74,665.51 585.61,665.51 585.61,797.46 589.48,797.46 589.48,611.64 593.35,611.64 593.35,743.59 597.23,743.59 597.23,875.54 601.10,875.54 601.10,689.72 604.97,689.72 604.97,821.68 608.84,821.68 608.84,635.85 612.71,635.85 612.71,767.81 616.59,767.81 616.59,581.99 620.46,581.99 620.46,713.94 624.33,713.94 624.33,845.89 628.20,845.89 628.20,660.07 632.07,660.07 632.07,792.02 635.95,792.02 635.95,606.20 639.82,606.20 639.82,738.15 643.69,738.15 643.69,870.11 647.56,870.11 647.56,684.29 651.43,684.29 651.43,816.24 655.30,816.24 655.30,630.42 659.18,630.42 659.18,762.37 663.05,762.37 663.05,576.55 666.92,576.55 666.92,708.50 670.79,708.50 670.79,840.46 674.66,840.46 674.66,654.63 678.54,654.63 678.54,786.59 682.41,786.59 682.41,600.77 686.28,600.77 686.28,732.72 690.15,732.72 690.15,864.67 694.02,864.67 694.02,678.85 697.90,678.85 697.90,810.80 701.77,810.80 701.77,624.98 705.64,624.98 705.64,756.93 709.51,756.93 709.51,571.11 713.38,571.11 713.38,703.07 717.26,703.07 717.26,835.02 721.13,835.02 721.13,649.20 725.00,649.20 725.00,781.15 728.87,781.15 728.87,595.33 732.74,595.33 732.74,727.28 736.62,727.28 736.62,859.23 740.49,859.23 740.49,673.41 744.36,673.41 744.36,805.37 748.23,805.37 748.23,619.54 752.10,619.54 752.10,751.50 755.98,751.50 755.98,883.45 759.85,883.45 759.85,697.63 763.72,697.63 763.72,829.58 767.59,829.58 767.59,643.76 771.46,643.76 771.46,775.71 775.34,775.71 775.34,589.89 779.21,589.89 779.21,721.85 783.08,721.85 783.08,853.80 786.95,853.80 786.95,667.98 790.82,667.98 790.82,799.93 794.70,799.93 794.70,614.11 798.57,614.11 798.57,746.06 802.44,746.06 802.44,878.01 806.31,878.01 806.31,692.19 810.18,692.19 810.18,824.15 814.05,824.15 814.05,638.32 817.93,638.32 817.93,770.28 821.80,770.28 821.80,584.46 825.67,584.46 825.67,716.41 829.54,716.41 829.54,848.36 833.41,848.36 833.41,662.54 837.29,662.54 837.29,794.49 841.16,794.49 841.16,608.67 845.03,608.67 845.03,740.62 848.90,740.62 848.90,872.58 852.77,872.58 852.77,686.76 856.65,686.76 856.65,818.71 860.52,818.71 860.52,632.89 864.39,632.89 864.39,764.84 868.26,764.84 868.26,579.02 872.13,579.02 872.13,710.97 876.01,710.97 876.01,842.93 879.88,842.93 879.88,657.10 883.75,657.10 883.75,789.06 887.62,789.06 887.62,603.24 891.49,603.24 891.49,735.19 895.37,735.19 895.37,867.14 899.24,867.14 899.24,681.32 903.11,681.32 903.11,813.27 906.98,813.27 906.98,627.45 910.85,627.45 910.85,759.40 914.73,759.40 914.73,573.58 918.60,573.58 918.60,705.54 922.47,705.54 922.47,837.49 926.34,837.49 926.34,651.67 930.21,651.67 930.21,783.62 934.09,783.62 934.09,597.80 937.96,597.80 937.96,729.75 941.83,729.75 941.83,861.71 945.70,861.71 945.70,675.88 949.57,675.88 949.57,807.84 953.45,807.84 953.45,622.01 957.32,622.01 957.32,753.97 961.19,753.97 961.19,885.92 965.06,885.92 965.06,700.10 968.93,700.10 968.93,832.05 972.80,832.05 972.80,646.23 976.68,646.23 976.68,778.18 980.55,778.18 980.55,592.36 984.42,592.36 984.42,724.32 988.29,724.32 988.29,856.27 992.16,856.27 992.16,670.45 996.04,670.45 996.04,802.40 999.91,802.40 999.91,616.58 1003.78,616.58 1003.78,748.53 1007.65,748.53 1007.65,880.48 1011.52,880.48 1011.52,694.66 1015.40,694.66 1015.40,826.62 1019.27,826.62 1019.27,640.79 1023.14,640.79 1023.14,772.75 1027.01,772.75 1027.01,586.93 1030.88,586.93 1030.88,718.88 1034.76,718.88 1034.76,850.83 1038.63,850.83 1038.63,665.01 1042.50,665.01 1042.50,796.96 1046.37,796.96 1046.37,611.14 1050.24,611.14 1050.24,743.10 1054.12,743.10 1054.12,875.05 1057.99,875.05 1057.99,689.23 1061.86,689.23 1061.86,821.18 1065.73,821.18 1065.73,635.36 1069.60,635.36 1069.60,767.31 1073.48,767.31 1073.48,581.49 1077.35,581.49 1077.35,713.44 1081.22,713.44 1081.22,845.40 1085.09,845.40 1085.09,659.57 1088.96,659.57 1088.96,791.53 1092.84,791.53 1092.84,605.71 1096.71,605.71 1096.71,737.66 1100.58,737.66 1100.58,869.61 1104.45,869.61 1104.45,683.79 1108.32,683.79 1108.32,815.74 1112.20,815.74 1112.20,629.92 1116.07,629.92 1116.07,761.87 1119.94,761.87 1119.94,576.05 1123.81,576.05 1123.81,708.01 1127.68,708.01 1127.68,839.96 1131.55,839.96 1131.55,654.14 1135.43,654.14 1135.43,786.09 1139.30,786.09 1139.30,600.27 1143.17,600.27 1143.17,732.22 1147.04,732.22 1147.04,864.18 1150.91,864.18 1150.91,678.35 1154.79,678.35 1154.79,810.31 1158.66,810.31 1158.66,624.49 1162.53,624.49 1162.53,756.44 1166.40,756.44 1166.40,888.39 1170.27,888.39 1170.27,702.57 1174.15,702.57 1174.15,834.52 1178.02,834.52 1178.02,648.70 1181.89,648.70 1181.89,780.65 1185.76,780.65 1185.76,594.83 1189.63,594.83 1189.63,726.79 1193.51,726.79 1193.51,858.74 1197.38,858.74 1197.38,672.92 1201.25,672.92 1201.25,804.87 1205.12,804.87 1205.12,619.05 1208.99,619.05 1208.99,751.00 1212.87,751.00 1212.87,882.96 1216.74,882.96 1216.74,697.13 1220.61,697.13 1220.61,829.09 1224.48,829.09 1224.48,643.26 1228.35,643.26 1228.35,775.22 1232.23,775.22 1232.23,589.40 1236.10,589.40 1236.10,721.35 1239.97,721.35 1239.97,853.30 1243.84,853.30 1243.84,667.48 1247.71,667.48 1247.71,799.43 1251.59,799.43 1251.59,613.61 1255.46,613.61 1255.46,745.57 1259.33,745.57 1259.33,877.52 1263.20,877.52 1263.20,691.70 1267.07,691.70 1267.07,823.65 1270.95,823.65 1270.95,637.83 1274.82,637.83 1274.82,769.78 1278.69,769.78 1278.69,583.96 1282.56,583.96 1282.56,715.91 1286.43,715.91 1286.43,847.87 1290.30,847.87 1290.30,662.04 1294.18,662.04 1294.18,794.00 1298.05,794.00 1298.05,608.18 1301.92,608.18 1301.92,740.13 1305.79,740.13 1305.79,872.08 1309.66,872.08 1309.66,686.26 1313.54,686.26 1313.54,818.21 1317.41,818.21 1317.41,632.39 1321.28,632.39 1321.28,764.35 1325.15,764.35 1325.15,578.52 1329.02,578.52 1329.02,710.48 1332.90,710.48 1332.90,842.43 1336.77,842.43 1336.77,656.61 1340.64,656.61 1340.64,788.56 1344.51,788.56 1344.51,602.74 1348.38,602.74 1348.38,734.69 1352.26,734.69 1352.26,866.65 1356.13,866.65 1356.13,680.82" /><text x="98" y="538" font-family="sans-serif" font-size="18" fill="#444" text-anchor="start">Jagged view (step plot of sawtooth residual)</text><line x1="1180" y1="64" x2="1220" y2="64" stroke="#1565c0" stroke-width="3"/><text x="1230" y="70" font-family="sans-serif" font-size="17">f64</text><line x1="1270" y1="64" x2="1310" y2="64" stroke="#c62828" stroke-width="3"/><text x="1320" y="70" font-family="sans-serif" font-size="17">f32</text></svg>