<svg xmlns="http://www.w3.org/2000/svg" width="1400" height="860" viewBox="0 0 1400 860"><rect width="100%" height="100%" fill="white"/><text x="700" y="42" font-family="sans-serif" font-size="34" text-anchor="middle">Soft float precision sweep (relative error at x = 10^k)</text><line x1="90.00" y1="80.00" x2="90.00" y2="770.00" stroke="#ececec" stroke-width="1"/><text x="90.00" y="792.00" font-family="sans-serif" font-size="12" text-anchor="middle">-20</text><line x1="248.75" y1="80.00" x2="248.75" y2="770.00" stroke="#ececec" stroke-width="1"/><text x="248.75" y="792.00" font-family="sans-serif" font-size="12" text-anchor="middle">-15</text><line x1="407.50" y1="80.00" x2="407.50" y2="770.00" stroke="#ececec" stroke-width="1"/><text x="407.50" y="792.00" font-family="sans-serif" font-size="12" text-anchor="middle">-10</text><line x1="566.25" y1="80.00" x2="566.25" y2="770.00" stroke="#ececec" stroke-width="1"/><text x="566.25" y="792.00" font-family="sans-serif" font-size="12" text-anchor="middle">-5</text><line x1="725.00" y1="80.00" x2="725.00" y2="770.00" stroke="#ececec" stroke-width="1"/><text x="725.00" y="792.00" font-family="sans-serif" font-size="12" text-anchor="middle">0</text><line x1="883.75" y1="80.00" x2="883.75" y2="770.00" stroke="#ececec" stroke-width="1"/><text x="883.75" y="792.00" font-family="sans-serif" font-size="12" text-anchor="middle">5</text><line x1="1042.50" y1="80.00" x2="1042.50" y2="770.00" stroke="#ececec" stroke-width="1"/><text x="1042.50" y="792.00" font-family="sans-serif" font-size="12" text-anchor="middle">10</text><line x1="1201.25" y1="80.00" x2="1201.25" y2="770.00" stroke="#ececec" stroke-width="1"/><text x="1201.25" y="792.00" font-family="sans-serif" font-size="12" text-anchor="middle">15</text><line x1="1360.00" y1="80.00" x2="1360.00" y2="770.00" stroke="#ececec" stroke-width="1"/><text x="1360.00" y="792.00" font-family="sans-serif" font-size="12" text-anchor="middle">20</text><line x1="90.00" y1="770.00" x2="1360.00" y2="770.00" stroke="#ececec" stroke-width="1"/><text x="82.00" y="774.00" font-family="sans-serif" font-size="12" text-anchor="end">-18</text><line x1="90.00" y1="732.70" x2="1360.00" y2="732.70" stroke="#ececec" stroke-width="1"/><text x="82.00" y="736.70" font-family="sans-serif" font-size="12" text-anchor="end">-17</text><line x1="90.00" y1="695.41" x2="1360.00" y2="695.41" stroke="#ececec" stroke-width="1"/><text x="82.00" y="699.41" font-family="sans-serif" font-size="12" text-anchor="end">-16</text><line x1="90.00" y1="658.11" x2="1360.00" y2="658.11" stroke="#ececec" stroke-width="1"/><text x="82.00" y="662.11" font-family="sans-serif" font-size="12" text-anchor="end">-15</text><line x1="90.00" y1="620.81" x2="1360.00" y2="620.81" stroke="#ececec" stroke-width="1"/><text x="82.00" y="624.81" font-family="sans-serif" font-size="12" text-anchor="end">-14</text><line x1="90.00" y1="583.51" x2="1360.00" y2="583.51" stroke="#ececec" stroke-width="1"/><text x="82.00" y="587.51" font-family="sans-serif" font-size="12" text-anchor="end">-13</text><line x1="90.00" y1="546.22" x2="1360.00" y2="546.22" stroke="#ececec" stroke-width="1"/><text x="82.00" y="550.22" font-family="sans-serif" font-size="12" text-anchor="end">-12</text><line x1="90.00" y1="508.92" x2="1360.00" y2="508.92" stroke="#ececec" stroke-width="1"/><text x="82.00" y="512.92" font-family="sans-serif" font-size="12" text-anchor="end">-11</text><line x1="90.00" y1="471.62" x2="1360.00" y2="471.62" stroke="#ececec" stroke-width="1"/><text x="82.00" y="475.62" font-family="sans-serif" font-size="12" text-anchor="end">-10</text><line x1="90.00" y1="434.32" x2="1360.00" y2="434.32" stroke="#ececec" stroke-width="1"/><text x="82.00" y="438.32" font-family="sans-serif" font-size="12" text-anchor="end">-9</text><line x1="90.00" y1="397.03" x2="1360.00" y2="397.03" stroke="#ececec" stroke-width="1"/><text x="82.00" y="401.03" font-family="sans-serif" font-size="12" text-anchor="end">-8</text><line x1="90.00" y1="359.73" x2="1360.00" y2="359.73" stroke="#ececec" stroke-width="1"/><text x="82.00" y="363.73" font-family="sans-serif" font-size="12" text-anchor="end">-7</text><line x1="90.00" y1="322.43" x2="1360.00" y2="322.43" stroke="#ececec" stroke-width="1"/><text x="82.00" y="326.43" font-family="sans-serif" font-size="12" text-anchor="end">-6</text><line x1="90.00" y1="285.14" x2="1360.00" y2="285.14" stroke="#ececec" stroke-width="1"/><text x="82.00" y="289.14" font-family="sans-serif" font-size="12" text-anchor="end">-5</text><line x1="90.00" y1="247.84" x2="1360.00" y2="247.84" stroke="#ececec" stroke-width="1"/><text x="82.00" y="251.84" font-family="sans-serif" font-size="12" text-anchor="end">-4</text><line x1="90.00" y1="210.54" x2="1360.00" y2="210.54" stroke="#ececec" stroke-width="1"/><text x="82.00" y="214.54" font-family="sans-serif" font-size="12" text-anchor="end">-3</text><line x1="90.00" y1="173.24" x2="1360.00" y2="173.24" stroke="#ececec" stroke-width="1"/><text x="82.00" y="177.24" font-family="sans-serif" font-size="12" text-anchor="end">-2</text><line x1="90.00" y1="135.95" x2="1360.00" y2="135.95" stroke="#ececec" stroke-width="1"/><text x="82.00" y="139.95" font-family="sans-serif" font-size="12" text-anchor="end">-1</text><line x1="90.00" y1="98.65" x2="1360.00" y2="98.65" stroke="#ececec" stroke-width="1"/><text x="82.00" y="102.65" font-family="sans-serif" font-size="12" text-anchor="end">0</text><line x1="90.00" y1="80.00" x2="90.00" y2="770.00" stroke="#222" stroke-width="2"/><line x1="90.00" y1="770.00" x2="1360.00" y2="770.00" stroke="#222" stroke-width="2"/><text x="725" y="830" font-family="sans-serif" font-size="16" text-anchor="middle">k where x = 10^k</text><text x="24" y="425" font-family="sans-serif" font-size="16" text-anchor="middle" transform="rotate(-90 24,425)">log10(relative error)</text><polyline fill="none" stroke="#1565c0" stroke-width="2" points="90.00,98.65 93.18,98.65 96.35,98.65 99.53,98.65 102.70,98.65 105.88,98.65 109.05,98.65 112.23,98.65 115.40,98.65 118.58,98.65 121.75,98.65 124.93,98.65 128.10,98.65 131.28,98.65 134.45,98.65 137.63,98.65 140.80,98.65 143.98,98.65 147.15,98.65 150.33,98.65 153.50,98.65 156.68,98.65 159.85,98.65 163.03,98.65 166.20,98.65 169.38,98.65 172.55,98.65 175.73,98.65 178.90,98.65 182.08,98.65 185.25,98.65 188.43,98.65 191.60,98.65 194.78,98.65 197.95,98.65 201.13,98.65 204.30,98.65 207.48,98.65 210.65,98.65 213.83,98.65 217.00,98.65 220.18,98.65 223.35,98.65 226.53,98.65 229.70,98.65 232.88,98.65 236.05,98.65 239.23,98.65 242.40,98.65 245.58,98.65 248.75,98.65 251.93,98.65 255.10,98.65 258.28,98.65 261.45,98.65 264.63,98.65 267.80,98.65 270.98,98.65 274.15,98.65 277.33,98.65 280.50,98.65 283.68,98.65 286.85,98.65 290.03,98.65 293.20,98.65 296.38,98.65 299.55,98.65 302.73,98.65 305.90,98.65 309.08,98.65 312.25,98.65 315.43,98.65 318.60,98.65 321.78,98.65 324.95,98.65 328.13,98.65 331.30,98.65 334.48,98.65 337.65,98.65 340.83,98.65 344.00,98.65 347.18,98.65 350.35,98.65 353.53,98.65 356.70,98.65 359.88,98.65 363.05,98.65 366.23,98.65 369.40,98.65 372.58,98.65 375.75,98.65 378.93,98.65 382.10,98.65 385.28,98.65 388.45,98.65 391.63,98.65 394.80,98.65 397.98,98.65 401.15,98.65 404.33,98.65 407.50,98.65 410.68,98.65 413.85,98.65 417.03,98.65 420.20,98.65 423.38,98.65 426.55,98.65 429.73,98.65 432.90,98.65 436.08,98.65 439.25,98.65 442.43,98.65 445.60,98.65 448.78,98.65 451.95,98.65 455.13,98.65 458.30,98.65 461.48,98.65 464.65,98.65 467.83,98.65 471.00,98.65 474.18,98.65 477.35,98.65 480.53,98.65 483.70,98.65 486.88,98.65 490.05,98.65 493.23,98.65 496.40,98.65 499.58,98.65 502.75,98.65 505.93,98.65 509.10,98.65 512.28,98.65 515.45,98.65 518.63,98.65 521.80,98.65 524.98,98.65 528.15,98.65 531.33,98.65 534.50,98.65 537.68,98.65 540.85,98.65 544.03,98.65 547.20,98.65 550.38,98.65 553.55,98.65 556.73,98.65 559.90,98.65 563.08,98.65 566.25,98.65 569.43,98.65 572.60,98.65 575.78,98.65 578.95,98.65 582.13,98.65 585.30,98.65 588.48,98.65 591.65,98.65 594.83,98.65 598.00,98.65 601.18,98.65 604.35,98.65 607.53,98.65 610.70,98.65 613.88,98.65 617.05,98.65 620.23,98.65 623.40,98.65 626.58,98.65 629.75,98.65 632.93,98.65 636.10,98.65 639.28,98.65 642.45,98.65 645.63,98.65 648.80,98.65 651.98,98.65 655.15,98.65 658.33,98.65 661.50,98.65 664.68,98.65 667.85,167.64 671.03,161.13 674.20,171.97 677.38,170.58 680.55,163.02 683.73,168.72 686.90,174.17 690.08,165.17 693.25,166.01 696.43,178.81 699.60,167.64 702.78,163.69 705.95,185.36 709.13,170.58 712.30,161.65 715.48,196.57 718.65,174.17 721.83,159.84 725.00,600.38 728.18,178.81 731.35,158.20 734.53,196.53 737.70,185.36 740.88,156.72 744.05,185.29 747.23,196.57 750.40,155.35 753.58,178.70 756.75,600.36 759.93,154.09 763.10,174.02 766.28,196.53 769.45,152.91 772.63,170.39 775.80,185.29 778.98,151.82 782.15,167.41 785.33,178.70 788.50,150.79 791.68,164.90 794.85,174.02 798.03,151.74 801.20,-inf 804.38,-inf 807.55,-inf 810.73,-inf 813.90,-inf 817.08,-inf 820.25,-inf 823.43,-inf 826.60,-inf 829.78,-inf 832.95,-inf 836.13,-inf 839.30,-inf 842.48,-inf 845.65,-inf 848.83,-inf 852.00,-inf 855.18,-inf 858.35,-inf 861.53,-inf 864.70,-inf 867.88,-inf 871.05,-inf 874.23,-inf 877.40,-inf 880.58,-inf 883.75,-inf 886.93,-inf 890.10,-inf 893.28,-inf 896.45,-inf 899.63,-inf 902.80,-inf 905.98,-inf 909.15,-inf 912.33,-inf 915.50,-inf 918.68,-inf 921.85,-inf 925.03,-inf 928.20,-inf 931.38,-inf 934.55,-inf 937.73,-inf 940.90,-inf 944.08,-inf 947.25,-inf 950.43,-inf 953.60,-inf 956.78,-inf 959.95,-inf 963.13,-inf 966.30,-inf 969.48,-inf 972.65,-inf 975.83,-inf 979.00,-inf 982.18,-inf 985.35,-inf 988.53,-inf 991.70,-inf 994.88,-inf 998.05,-inf 1001.23,-inf 1004.40,-inf 1007.57,-inf 1010.75,-inf 1013.93,-inf 1017.10,-inf 1020.27,-inf 1023.45,-inf 1026.62,-inf 1029.80,-inf 1032.97,-inf 1036.15,-inf 1039.32,-inf 1042.50,-inf 1045.67,-inf 1048.85,-inf 1052.03,-inf 1055.20,-inf 1058.37,-inf 1061.55,-inf 1064.72,-inf 1067.90,-inf 1071.07,-inf 1074.25,-inf 1077.42,-inf 1080.60,-inf 1083.77,-inf 1086.95,-inf 1090.12,-inf 1093.30,-inf 1096.47,-inf 1099.65,-inf 1102.82,-inf 1106.00,-inf 1109.17,-inf 1112.35,-inf 1115.52,-inf 1118.70,-inf 1121.87,-inf 1125.05,-inf 1128.22,-inf 1131.40,-inf 1134.57,-inf 1137.75,-inf 1140.92,-inf 1144.10,-inf 1147.27,-inf 1150.45,-inf 1153.62,-inf 1156.80,-inf 1159.97,-inf 1163.15,-inf 1166.32,-inf 1169.50,-inf 1172.67,-inf 1175.85,-inf 1179.02,-inf 1182.20,-inf 1185.37,-inf 1188.55,-inf 1191.72,-inf 1194.90,-inf 1198.07,-inf 1201.25,-inf 1204.42,-inf 1207.60,-inf 1210.77,-inf 1213.95,-inf 1217.12,-inf 1220.30,-inf 1223.47,-inf 1226.65,-inf 1229.82,-inf 1233.00,-inf 1236.17,-inf 1239.35,-inf 1242.52,-inf 1245.70,-inf 1248.87,-inf 1252.05,-inf 1255.22,-inf 1258.40,-inf 1261.57,-inf 1264.75,-inf 1267.92,-inf 1271.10,-inf 1274.27,-inf 1277.45,-inf 1280.62,-inf 1283.80,-inf 1286.98,-inf 1290.15,-inf 1293.33,-inf 1296.50,-inf 1299.68,-inf 1302.85,-inf 1306.03,-inf 1309.20,-inf 1312.38,-inf 1315.55,-inf 1318.73,-inf 1321.90,-inf 1325.08,-inf 1328.25,-inf 1331.43,-inf 1334.60,-inf 1337.78,-inf 1340.95,-inf 1344.13,-inf 1347.30,-inf 1350.48,-inf 1353.65,-inf 1356.83,-inf 1360.00,-inf" /><polyline fill="none" stroke="#c62828" stroke-width="2" points="90.00,98.65 93.18,98.65 96.35,98.65 99.53,98.65 102.70,98.65 105.88,98.65 109.05,98.65 112.23,98.65 115.40,98.65 118.58,98.65 121.75,98.65 124.93,98.65 128.10,98.65 131.28,98.65 134.45,98.65 137.63,98.65 140.80,98.65 143.98,98.65 147.15,98.65 150.33,98.65 153.50,98.65 156.68,98.65 159.85,98.65 163.03,98.65 166.20,98.65 169.38,98.65 172.55,98.65 175.73,98.65 178.90,98.65 182.08,98.65 185.25,98.65 188.43,98.65 191.60,98.65 194.78,98.65 197.95,98.65 201.13,98.65 204.30,98.65 207.48,98.65 210.65,98.65 213.83,98.65 217.00,98.65 220.18,98.65 223.35,98.65 226.53,98.65 229.70,98.65 232.88,98.65 236.05,98.65 239.23,98.65 242.40,98.65 245.58,98.65 248.75,98.65 251.93,98.65 255.10,98.65 258.28,98.65 261.45,98.65 264.63,98.65 267.80,98.65 270.98,98.65 274.15,98.65 277.33,98.65 280.50,98.65 283.68,98.65 286.85,98.65 290.03,98.65 293.20,98.65 296.38,98.65 299.55,98.65 302.73,98.65 305.90,98.65 309.08,98.65 312.25,98.65 315.43,98.65 318.60,98.65 321.78,98.65 324.95,98.65 328.13,98.65 331.30,98.65 334.48,98.65 337.65,98.65 340.83,98.65 344.00,98.65 347.18,98.65 350.35,98.65 353.53,98.65 356.70,98.65 359.88,98.65 363.05,98.65 366.23,98.65 369.40,98.65 372.58,98.65 375.75,98.65 378.93,98.65 382.10,98.65 385.28,98.65 388.45,98.65 391.63,98.65 394.80,98.65 397.98,98.65 401.15,98.65 404.33,98.65 407.50,98.65 410.68,98.65 413.85,98.65 417.03,98.65 420.20,98.65 423.38,98.65 426.55,98.65 429.73,98.65 432.90,98.65 436.08,98.65 439.25,98.65 442.43,98.65 445.60,98.65 448.78,98.65 451.95,98.65 455.13,98.65 458.30,98.65 461.48,98.65 464.65,98.65 467.83,98.65 471.00,98.65 474.18,98.65 477.35,98.65 480.53,98.65 483.70,98.65 486.88,98.65 490.05,98.65 493.23,98.65 496.40,98.65 499.58,98.65 502.75,98.65 505.93,98.65 509.10,98.65 512.28,98.65 515.45,98.65 518.63,98.65 521.80,98.65 524.98,98.65 528.15,98.65 531.33,98.65 534.50,98.65 537.68,98.65 540.85,98.65 544.03,98.65 547.20,98.65 550.38,98.65 553.55,98.65 556.73,98.65 559.90,98.65 563.08,98.65 566.25,98.65 569.43,98.65 572.60,98.65 575.78,98.65 578.95,98.65 582.13,98.65 585.30,98.65 588.48,98.65 591.65,225.16 594.83,232.74 598.00,239.63 601.18,256.16 604.35,226.54 607.53,241.17 610.70,224.74 613.88,231.87 617.05,243.56 620.23,255.42 623.40,240.09 626.58,247.23 629.75,225.21 632.93,256.16 636.10,253.24 639.28,249.90 642.45,264.16 645.63,265.49 648.80,226.65 651.98,243.88 655.15,284.86 658.33,242.82 661.50,235.54 664.68,256.16 667.85,229.39 671.03,230.35 674.20,245.52 677.38,236.00 680.55,226.65 683.73,238.61 686.90,234.23 690.08,228.58 693.25,233.38 696.43,229.92 699.60,232.03 702.78,230.35 705.95,243.89 709.13,236.00 712.30,235.33 715.48,224.58 718.65,240.71 721.83,243.26 725.00,600.38 728.18,246.55 731.35,261.61 734.53,252.99 737.70,254.38 740.88,258.06 744.05,241.11 747.23,267.00 750.40,240.71 753.58,233.92 756.75,600.36 759.93,232.15 763.10,239.63 766.28,270.19 769.45,233.37 772.63,253.54 775.80,260.85 778.98,244.19 782.15,266.57 785.33,256.42 788.50,599.70 791.68,242.46 794.85,254.23 798.03,243.41 801.20,233.37 804.38,253.54 807.55,231.80 810.73,244.19 813.90,254.18 817.08,235.35 820.25,598.82 823.43,256.32 826.60,254.23 829.78,243.41 832.95,260.70 836.13,249.94 839.30,234.12 842.48,269.99 845.65,233.04 848.83,249.48 852.00,597.98 855.18,235.21 858.35,256.44 861.53,266.69 864.70,260.70 867.88,235.49 871.05,254.03 874.23,243.08 877.40,243.46 880.58,-inf 883.75,-inf 886.93,-inf 890.10,-inf 893.28,-inf 896.45,-inf 899.63,-inf 902.80,-inf 905.98,-inf 909.15,-inf 912.33,-inf 915.50,-inf 918.68,-inf 921.85,-inf 925.03,-inf 928.20,-inf 931.38,-inf 934.55,-inf 937.73,-inf 940.90,-inf 944.08,-inf 947.25,-inf 950.43,-inf 953.60,-inf 956.78,-inf 959.95,-inf 963.13,-inf 966.30,-inf 969.48,-inf 972.65,-inf 975.83,-inf 979.00,-inf 982.18,-inf 985.35,-inf 988.53,-inf 991.70,-inf 994.88,-inf 998.05,-inf 1001.23,-inf 1004.40,-inf 1007.57,-inf 1010.75,-inf 1013.93,-inf 1017.10,-inf 1020.27,-inf 1023.45,-inf 1026.62,-inf 1029.80,-inf 1032.97,-inf 1036.15,-inf 1039.32,-inf 1042.50,-inf 1045.67,-inf 1048.85,-inf 1052.03,-inf 1055.20,-inf 1058.37,-inf 1061.55,-inf 1064.72,-inf 1067.90,-inf 1071.07,-inf 1074.25,-inf 1077.42,-inf 1080.60,-inf 1083.77,-inf 1086.95,-inf 1090.12,-inf 1093.30,-inf 1096.47,-inf 1099.65,-inf 1102.82,-inf 1106.00,-inf 1109.17,-inf 1112.35,-inf 1115.52,-inf 1118.70,-inf 1121.87,-inf 1125.05,-inf 1128.22,-inf 1131.40,-inf 1134.57,-inf 1137.75,-inf 1140.92,-inf 1144.10,-inf 1147.27,-inf 1150.45,-inf 1153.62,-inf 1156.80,-inf 1159.97,-inf 1163.15,-inf 1166.32,-inf 1169.50,-inf 1172.67,-inf 1175.85,-inf 1179.02,-inf 1182.20,-inf 1185.37,-inf 1188.55,-inf 1191.72,-inf 1194.90,-inf 1198.07,-inf 1201.25,-inf 1204.42,-inf 1207.60,-inf 1210.77,-inf 1213.95,-inf 1217.12,-inf 1220.30,-inf 1223.47,-inf 1226.65,-inf 1229.82,-inf 1233.00,-inf 1236.17,-inf 1239.35,-inf 1242.52,-inf 1245.70,-inf 1248.87,-inf 1252.05,-inf 1255.22,-inf 1258.40,-inf 1261.57,-inf 1264.75,-inf 1267.92,-inf 1271.10,-inf 1274.27,-inf 1277.45,-inf 1280.62,-inf 1283.80,-inf 1286.98,-inf 1290.15,-inf 1293.33,-inf 1296.50,-inf 1299.68,-inf 1302.85,-inf 1306.03,-inf 1309.20,-inf 1312.38,-inf 1315.55,-inf 1318.73,-inf 1321.90,-inf 1325.08,-inf 1328.25,-inf 1331.43,-inf 1334.60,-inf 1337.78,-inf 1340.95,-inf 1344.13,-inf 1347.30,-inf 1350.48,-inf 1353.65,-inf 1356.83,-inf 1360.00,-inf" /><polyline fill="none" stroke="#2e7d32" stroke-width="2" points="90.00,220.00 93.18,213.70 96.35,198.69 99.53,196.54 102.70,210.29 105.88,197.49 109.05,299.06 112.23,205.60 115.40,243.55 118.58,196.56 121.75,221.73 124.93,195.67 128.10,218.98 131.28,200.38 134.45,200.50 137.63,201.21 140.80,299.06 143.98,221.41 147.15,207.42 150.33,200.18 153.50,193.37 156.68,208.14 159.85,222.61 163.03,203.72 166.20,200.50 169.38,204.69 172.55,213.23 175.73,221.41 178.90,211.62 182.08,191.58 185.25,195.48 188.43,210.64 191.60,207.12 194.78,239.67 197.95,205.34 201.13,208.47 204.30,197.71 207.48,219.64 210.65,190.91 213.83,212.77 217.00,200.99 220.18,210.64 223.35,203.96 226.53,239.67 229.70,205.34 232.88,202.86 236.05,198.15 239.23,191.87 242.40,214.90 245.58,235.03 248.75,214.17 251.93,196.55 255.10,201.18 258.28,203.20 261.45,306.21 264.63,219.15 267.80,192.64 270.98,196.55 274.15,204.68 277.33,217.44 280.50,214.17 283.68,211.62 286.85,201.76 290.03,203.20 293.20,208.88 296.38,193.16 299.55,202.67 302.73,206.74 305.90,220.06 309.08,215.32 312.25,214.17 315.43,200.86 318.60,195.81 321.78,203.20 324.95,193.43 328.13,245.63 331.30,221.43 334.48,221.51 337.65,197.34 340.83,200.46 344.00,200.44 347.18,210.47 350.35,233.55 353.53,193.42 356.70,205.47 359.88,198.28 363.05,221.43 366.23,199.93 369.40,290.24 372.58,200.46 375.75,223.69 378.93,198.27 382.10,193.12 385.28,193.75 388.45,233.93 391.63,219.82 394.80,221.43 397.98,199.93 401.15,200.94 404.33,200.46 407.50,223.69 410.68,192.55 413.85,204.01 417.03,201.58 420.20,217.05 423.38,212.72 426.55,217.98 429.73,201.91 432.90,195.60 436.08,203.21 439.25,191.73 442.43,241.63 445.60,214.19 448.78,213.62 451.95,197.57 455.13,204.78 458.30,203.49 461.48,207.59 464.65,211.47 467.83,190.70 471.00,207.97 474.18,206.26 477.35,209.94 480.53,197.15 483.70,209.46 486.88,205.87 490.05,250.76 493.23,207.59 496.40,189.49 499.58,195.97 502.75,207.97 505.93,206.26 509.10,209.94 512.28,208.72 515.45,209.46 518.63,205.87 521.80,206.89 524.98,190.50 528.15,197.83 531.33,209.61 534.50,202.70 537.68,238.60 540.85,206.13 544.03,215.23 547.20,195.37 550.38,210.19 553.55,192.09 556.73,210.31 559.90,205.68 563.08,199.34 566.25,205.58 569.43,210.43 572.60,226.54 575.78,197.49 578.95,205.50 582.13,194.17 585.30,243.56 588.48,210.31 591.65,196.17 594.83,195.67 598.00,205.58 601.18,256.16 604.35,208.53 607.53,209.84 610.70,196.95 613.88,207.06 617.05,205.95 620.23,193.20 623.40,196.17 626.58,209.04 629.75,220.24 632.93,256.16 636.10,206.60 639.28,200.81 642.45,196.95 645.63,207.96 648.80,190.42 651.98,205.15 655.15,207.60 658.33,209.04 661.50,210.92 664.68,206.65 667.85,206.60 671.03,194.07 674.20,209.00 677.38,189.56 680.55,225.51 683.73,205.15 686.90,201.92 690.08,199.50 693.25,210.92 696.43,217.09 699.60,200.97 702.78,203.54 705.95,192.51 709.13,219.81 712.30,213.56 715.48,196.57 718.65,193.07 721.83,201.84 725.00,600.38 728.18,212.54 731.35,217.30 734.53,203.54 737.70,204.10 740.88,200.09 744.05,213.56 747.23,196.57 750.40,222.98 753.58,215.68 756.75,600.36 759.93,198.33 763.10,202.48 766.28,196.53 769.45,233.37 772.63,253.54 775.80,203.70 778.98,196.57 782.15,203.79 785.33,213.26 788.50,599.70 791.68,213.11 794.85,192.28 798.03,196.53 801.20,215.18 804.38,215.86 807.55,231.80 810.73,202.71 813.90,202.40 817.08,198.49 820.25,598.82 823.43,196.88 826.60,219.83 829.78,202.58 832.95,260.70 836.13,200.93 839.30,215.52 842.48,196.23 845.65,212.55 848.83,211.95 852.00,202.93 855.18,204.09 858.35,204.46 861.53,214.76 864.70,207.20 867.88,235.49 871.05,191.97 874.23,208.38 877.40,200.16 880.58,211.95 883.75,202.93 886.93,222.69 890.10,204.46 893.28,214.76 896.45,207.20 899.63,194.80 902.80,199.33 905.98,208.38 909.15,231.47 912.33,226.54 915.50,219.48 918.68,198.53 921.85,196.22 925.03,201.05 928.20,198.96 931.38,258.31 934.55,256.02 937.73,228.72 940.90,196.90 944.08,202.04 947.25,194.45 950.43,221.65 953.60,216.78 956.78,204.11 959.95,200.41 963.13,209.17 966.30,212.55 969.48,210.83 972.65,206.50 975.83,191.40 979.00,205.21 982.18,221.65 985.35,210.97 988.53,204.11 991.70,200.41 994.88,205.11 998.05,212.55 1001.23,255.06 1004.40,193.45 1007.57,199.15 1010.75,201.42 1013.93,221.65 1017.10,227.57 1020.27,218.42 1023.45,200.41 1026.62,195.18 1029.80,207.27 1032.97,196.05 1036.15,235.63 1039.32,208.31 1042.50,251.88 1045.67,198.05 1048.85,216.11 1052.03,197.07 1055.20,214.11 1058.37,202.30 1061.55,198.78 1064.72,203.23 1067.90,235.63 1071.07,229.88 1074.25,204.86 1077.42,198.50 1080.60,194.58 1083.77,211.35 1086.95,231.96 1090.12,201.64 1093.30,198.78 1096.47,202.50 1099.65,217.81 1102.82,229.88 1106.00,215.70 1109.17,192.67 1112.35,194.58 1115.52,207.57 1118.70,204.60 1121.87,226.48 1125.05,208.00 1128.22,211.76 1131.40,199.31 1134.57,214.60 1137.75,191.18 1140.92,209.30 1144.10,202.99 1147.27,207.57 1150.45,206.39 1153.62,226.48 1156.80,208.00 1159.97,200.89 1163.15,199.31 1166.32,190.84 1169.50,220.06 1172.67,281.87 1175.85,210.42 1179.02,195.19 1182.20,199.39 1185.37,205.50 1188.55,235.75 1191.72,226.25 1194.90,191.56 1198.07,198.04 1201.25,202.49 1204.42,212.96 1207.60,210.42 1210.77,215.70 1213.95,203.85 1217.12,205.50 1220.30,206.10 1223.47,192.05 1226.65,200.72 1229.82,209.66 1233.00,214.90 1236.17,220.63 1239.35,210.42 1242.52,202.84 1245.70,194.51 1248.87,205.50 1252.05,192.30 1255.22,228.86 1258.40,215.89 1261.57,215.95 1264.75,198.91 1267.92,202.39 1271.10,202.36 1274.27,207.42 1277.45,223.48 1280.62,192.29 1283.80,208.15 1286.98,199.94 1290.15,215.89 1293.33,198.27 1296.50,236.54 1299.68,202.39 1302.85,233.94 1306.03,197.97 1309.20,192.01 1312.38,195.00 1315.55,268.62 1318.73,214.73 1321.90,215.89 1325.08,198.27 1328.25,202.92 1331.43,202.39 1334.60,233.94 1337.78,191.48 1340.95,201.90 1344.13,199.75 1347.30,212.66 1350.48,217.13 1353.65,224.46 1356.83,204.03 1360.00,194.32" /><polyline fill="none" stroke="#6a1b9a" stroke-width="2" points="90.00,378.32 93.18,388.57 96.35,379.18 99.53,375.83 102.70,412.05 105.88,377.48 109.05,392.91 112.23,381.37 115.40,457.50 118.58,404.76 121.75,378.32 124.93,373.58 128.10,395.97 131.28,380.49 134.45,412.05 137.63,392.79 140.80,392.91 143.98,445.35 147.15,457.50 150.33,381.34 153.50,372.37 156.68,374.73 159.85,380.95 163.03,370.97 166.20,375.74 169.38,379.59 172.55,381.51 175.73,384.90 178.90,377.92 182.08,393.14 185.25,389.19 188.43,383.41 191.60,370.54 194.78,379.65 197.95,393.82 201.13,383.55 204.30,407.35 207.48,384.90 210.65,385.88 213.83,400.41 217.00,388.56 220.18,371.13 223.35,378.08 226.53,393.21 229.70,375.18 232.88,386.73 236.05,384.32 239.23,387.09 242.40,384.22 245.58,399.57 248.75,413.45 251.93,380.10 255.10,431.35 258.28,393.21 261.45,382.38 264.63,422.03 267.80,384.32 270.98,418.53 274.15,407.41 277.33,372.75 280.50,387.92 283.68,407.62 286.85,393.86 290.03,393.21 293.20,382.38 296.38,379.82 299.55,384.32 302.73,391.29 305.90,400.33 309.08,383.23 312.25,387.92 315.43,407.62 318.60,378.91 321.78,384.78 324.95,382.38 328.13,379.82 331.30,393.89 334.48,374.64 337.65,379.43 340.83,383.23 344.00,411.89 347.18,375.46 350.35,378.91 353.53,376.79 356.70,374.55 359.88,383.89 363.05,374.83 366.23,387.33 369.40,393.47 372.58,412.47 375.75,411.89 378.93,391.80 382.10,382.76 385.28,392.59 388.45,379.77 391.63,383.89 394.80,411.05 397.98,377.34 401.15,374.59 404.33,381.74 407.50,392.35 410.68,374.03 413.85,421.26 417.03,392.59 420.20,374.55 423.38,443.62 426.55,378.88 429.73,371.17 432.90,411.70 436.08,381.74 439.25,380.19 442.43,418.09 445.60,390.17 448.78,373.59 451.95,387.55 455.13,376.95 458.30,370.01 461.48,388.33 464.65,384.52 467.83,389.18 471.00,405.09 474.18,418.09 477.35,369.48 480.53,382.66 483.70,376.69 486.88,376.95 490.05,378.86 493.23,376.82 496.40,384.52 499.58,404.97 502.75,394.50 505.93,418.09 509.10,378.00 512.28,382.66 515.45,376.45 518.63,376.95 521.80,392.96 524.98,404.08 528.15,436.32 531.33,404.97 534.50,419.32 537.68,418.09 540.85,414.01 544.03,370.08 547.20,378.06 550.38,388.85 553.55,379.24 556.73,389.20 559.90,386.71 563.08,376.85 566.25,382.02 569.43,385.18 572.60,369.75 575.78,375.24 578.95,384.22 582.13,374.19 585.30,375.17 588.48,389.20 591.65,377.53 594.83,394.28 598.00,382.02 601.18,370.49 604.35,400.70 607.53,389.11 610.70,403.00 613.88,380.31 617.05,389.14 620.23,393.00 623.40,377.53 626.58,394.28 629.75,371.79 632.93,407.55 636.10,396.41 639.28,372.49 642.45,403.00 645.63,397.58 648.80,372.48 651.98,396.38 655.15,390.60 658.33,369.17 661.50,384.00 664.68,383.04 667.85,369.57 671.03,431.40 674.20,379.14 677.38,369.76 680.55,430.47 683.73,381.08 686.90,390.84 690.08,398.88 693.25,390.57 696.43,370.87 699.60,389.36 702.78,385.91 705.95,379.69 709.13,403.46 712.30,430.47 715.48,368.98 718.65,377.90 721.83,380.54 725.00,600.38 728.18,385.20 731.35,384.59 734.53,382.22 737.70,379.69 740.88,393.90 744.05,430.47 747.23,398.88 750.40,377.90 753.58,380.54 756.75,600.36 759.93,385.20 763.10,384.59 766.28,395.62 769.45,396.74 772.63,387.48 775.80,375.75 778.98,379.70 782.15,393.07 785.33,413.28 788.50,599.70 791.68,397.78 794.85,419.39 798.03,400.22 801.20,408.23 804.38,373.72 807.55,387.47 810.73,388.88 813.90,393.07 817.08,389.88 820.25,598.82 823.43,418.99 826.60,419.39 829.78,402.61 832.95,388.28 836.13,383.64 839.30,387.47 842.48,372.90 845.65,378.13 848.83,390.25 852.00,597.98 855.18,388.61 858.35,387.58 861.53,407.77 864.70,376.01 867.88,383.21 871.05,373.56 874.23,391.47 877.40,431.96 880.58,374.66 883.75,601.60 886.93,388.61 890.10,373.57 893.28,391.09 896.45,396.94 899.63,371.56 902.80,376.31 905.98,379.40 909.15,371.49 912.33,386.43 915.50,606.25 918.68,379.65 921.85,376.14 925.03,379.18 928.20,380.78 931.38,380.12 934.55,395.24 937.73,377.85 940.90,399.19 944.08,386.43 947.25,612.81 950.43,398.08 953.60,409.06 956.78,373.55 959.95,393.36 963.13,386.61 966.30,381.24 969.48,393.14 972.65,382.45 975.83,403.66 979.00,624.03 982.18,383.96 985.35,372.41 988.53,375.59 991.70,393.36 994.88,378.41 998.05,404.22 1001.23,415.25 1004.40,370.97 1007.57,381.07 1010.75,770.00 1013.93,383.96 1017.10,407.19 1020.27,396.17 1023.45,375.39 1026.62,398.90 1029.80,383.90 1032.97,389.40 1036.15,379.41 1039.32,384.58 1042.50,624.02 1045.67,375.15 1048.85,380.96 1052.03,383.28 1055.20,375.39 1058.37,402.16 1061.55,376.57 1064.72,376.08 1067.90,417.71 1071.07,373.44 1074.25,385.42 1077.42,396.70 1080.60,375.56 1083.77,383.28 1086.95,406.98 1090.12,372.26 1093.30,381.31 1096.47,379.82 1099.65,417.71 1102.82,426.25 1106.00,411.49 1109.17,376.17 1112.35,375.56 1115.52,381.61 1118.70,378.44 1121.87,409.28 1125.05,383.53 1128.22,389.56 1131.40,383.14 1134.57,387.37 1137.75,388.24 1140.92,381.40 1144.10,384.93 1147.27,393.08 1150.45,396.64 1153.62,409.28 1156.80,373.46 1159.97,389.56 1163.15,383.14 1166.32,371.67 1169.50,412.84 1172.67,381.40 1175.85,372.64 1179.02,393.08 1182.20,396.64 1185.37,387.55 1188.55,385.50 1191.72,377.89 1194.90,396.60 1198.07,406.38 1201.25,392.77 1204.42,381.40 1207.60,374.72 1210.77,385.11 1213.95,388.94 1217.12,382.52 1220.30,392.36 1223.47,377.89 1226.65,378.42 1229.82,383.88 1233.00,380.79 1236.17,375.52 1239.35,405.98 1242.52,386.22 1245.70,381.38 1248.87,397.91 1252.05,392.36 1255.22,377.89 1258.40,378.42 1261.57,378.41 1264.75,389.73 1267.92,385.26 1271.10,371.47 1274.27,386.22 1277.45,382.17 1280.62,378.56 1283.80,376.77 1286.98,386.78 1290.15,383.59 1293.33,394.49 1296.50,389.73 1299.68,402.74 1302.85,381.08 1306.03,421.08 1309.20,373.26 1312.38,397.78 1315.55,377.14 1318.73,376.27 1321.90,385.28 1325.08,379.78 1328.25,423.51 1331.43,402.74 1334.60,381.08 1337.78,370.06 1340.95,449.17 1344.13,400.97 1347.30,403.99 1350.48,379.34 1353.65,415.37 1356.83,369.69 1360.00,385.77" /><polyline fill="none" stroke="#ef6c00" stroke-width="2" points="90.00,770.00 93.18,770.00 96.35,770.00 99.53,770.00 102.70,770.00 105.88,770.00 109.05,770.00 112.23,770.00 115.40,770.00 118.58,770.00 121.75,770.00 124.93,770.00 128.10,770.00 131.28,770.00 134.45,770.00 137.63,770.00 140.80,770.00 143.98,770.00 147.15,770.00 150.33,770.00 153.50,770.00 156.68,770.00 159.85,770.00 163.03,770.00 166.20,770.00 169.38,770.00 172.55,770.00 175.73,770.00 178.90,770.00 182.08,770.00 185.25,770.00 188.43,770.00 191.60,770.00 194.78,770.00 197.95,770.00 201.13,770.00 204.30,770.00 207.48,770.00 210.65,770.00 213.83,770.00 217.00,770.00 220.18,770.00 223.35,770.00 226.53,770.00 229.70,770.00 232.88,770.00 236.05,770.00 239.23,770.00 242.40,770.00 245.58,770.00 248.75,770.00 251.93,770.00 255.10,770.00 258.28,770.00 261.45,770.00 264.63,770.00 267.80,770.00 270.98,770.00 274.15,770.00 277.33,770.00 280.50,770.00 283.68,770.00 286.85,770.00 290.03,770.00 293.20,770.00 296.38,770.00 299.55,770.00 302.73,770.00 305.90,770.00 309.08,770.00 312.25,770.00 315.43,770.00 318.60,770.00 321.78,770.00 324.95,770.00 328.13,770.00 331.30,770.00 334.48,770.00 337.65,770.00 340.83,770.00 344.00,770.00 347.18,770.00 350.35,770.00 353.53,770.00 356.70,770.00 359.88,770.00 363.05,770.00 366.23,770.00 369.40,770.00 372.58,770.00 375.75,770.00 378.93,770.00 382.10,770.00 385.28,770.00 388.45,770.00 391.63,770.00 394.80,770.00 397.98,770.00 401.15,770.00 404.33,770.00 407.50,770.00 410.68,770.00 413.85,770.00 417.03,770.00 420.20,770.00 423.38,770.00 426.55,770.00 429.73,770.00 432.90,770.00 436.08,770.00 439.25,770.00 442.43,770.00 445.60,770.00 448.78,770.00 451.95,770.00 455.13,770.00 458.30,770.00 461.48,770.00 464.65,770.00 467.83,770.00 471.00,770.00 474.18,770.00 477.35,770.00 480.53,770.00 483.70,770.00 486.88,770.00 490.05,770.00 493.23,770.00 496.40,770.00 499.58,770.00 502.75,770.00 505.93,770.00 509.10,770.00 512.28,770.00 515.45,770.00 518.63,770.00 521.80,770.00 524.98,770.00 528.15,770.00 531.33,770.00 534.50,770.00 537.68,770.00 540.85,770.00 544.03,770.00 547.20,770.00 550.38,770.00 553.55,770.00 556.73,770.00 559.90,770.00 563.08,770.00 566.25,770.00 569.43,770.00 572.60,770.00 575.78,770.00 578.95,770.00 582.13,770.00 585.30,770.00 588.48,770.00 591.65,770.00 594.83,770.00 598.00,770.00 601.18,770.00 604.35,770.00 607.53,770.00 610.70,770.00 613.88,770.00 617.05,770.00 620.23,770.00 623.40,770.00 626.58,770.00 629.75,770.00 632.93,770.00 636.10,770.00 639.28,770.00 642.45,770.00 645.63,770.00 648.80,770.00 651.98,770.00 655.15,770.00 658.33,770.00 661.50,770.00 664.68,770.00 667.85,770.00 671.03,770.00 674.20,770.00 677.38,770.00 680.55,770.00 683.73,770.00 686.90,770.00 690.08,770.00 693.25,770.00 696.43,770.00 699.60,770.00 702.78,770.00 705.95,770.00 709.13,770.00 712.30,770.00 715.48,770.00 718.65,770.00 721.83,770.00 725.00,770.00 728.18,770.00 731.35,770.00 734.53,770.00 737.70,770.00 740.88,770.00 744.05,770.00 747.23,770.00 750.40,770.00 753.58,770.00 756.75,770.00 759.93,770.00 763.10,770.00 766.28,770.00 769.45,770.00 772.63,770.00 775.80,770.00 778.98,770.00 782.15,770.00 785.33,770.00 788.50,770.00 791.68,770.00 794.85,770.00 798.03,770.00 801.20,770.00 804.38,770.00 807.55,770.00 810.73,770.00 813.90,770.00 817.08,770.00 820.25,770.00 823.43,770.00 826.60,770.00 829.78,770.00 832.95,770.00 836.13,770.00 839.30,770.00 842.48,770.00 845.65,770.00 848.83,770.00 852.00,770.00 855.18,770.00 858.35,770.00 861.53,770.00 864.70,770.00 867.88,770.00 871.05,770.00 874.23,770.00 877.40,770.00 880.58,770.00 883.75,770.00 886.93,770.00 890.10,770.00 893.28,770.00 896.45,770.00 899.63,770.00 902.80,770.00 905.98,770.00 909.15,770.00 912.33,770.00 915.50,770.00 918.68,770.00 921.85,770.00 925.03,770.00 928.20,770.00 931.38,770.00 934.55,770.00 937.73,770.00 940.90,770.00 944.08,770.00 947.25,770.00 950.43,770.00 953.60,770.00 956.78,770.00 959.95,770.00 963.13,770.00 966.30,770.00 969.48,770.00 972.65,770.00 975.83,770.00 979.00,770.00 982.18,770.00 985.35,770.00 988.53,770.00 991.70,770.00 994.88,770.00 998.05,770.00 1001.23,770.00 1004.40,770.00 1007.57,770.00 1010.75,770.00 1013.93,770.00 1017.10,770.00 1020.27,770.00 1023.45,770.00 1026.62,770.00 1029.80,770.00 1032.97,770.00 1036.15,770.00 1039.32,770.00 1042.50,770.00 1045.67,770.00 1048.85,770.00 1052.03,770.00 1055.20,770.00 1058.37,770.00 1061.55,770.00 1064.72,770.00 1067.90,770.00 1071.07,770.00 1074.25,770.00 1077.42,770.00 1080.60,770.00 1083.77,770.00 1086.95,770.00 1090.12,770.00 1093.30,770.00 1096.47,770.00 1099.65,770.00 1102.82,770.00 1106.00,770.00 1109.17,770.00 1112.35,770.00 1115.52,770.00 1118.70,770.00 1121.87,770.00 1125.05,770.00 1128.22,770.00 1131.40,770.00 1134.57,770.00 1137.75,770.00 1140.92,770.00 1144.10,770.00 1147.27,770.00 1150.45,770.00 1153.62,770.00 1156.80,770.00 1159.97,770.00 1163.15,770.00 1166.32,770.00 1169.50,770.00 1172.67,770.00 1175.85,770.00 1179.02,770.00 1182.20,770.00 1185.37,770.00 1188.55,770.00 1191.72,770.00 1194.90,770.00 1198.07,770.00 1201.25,770.00 1204.42,770.00 1207.60,770.00 1210.77,770.00 1213.95,770.00 1217.12,770.00 1220.30,770.00 1223.47,770.00 1226.65,770.00 1229.82,770.00 1233.00,770.00 1236.17,770.00 1239.35,770.00 1242.52,770.00 1245.70,770.00 1248.87,770.00 1252.05,770.00 1255.22,770.00 1258.40,770.00 1261.57,770.00 1264.75,770.00 1267.92,770.00 1271.10,770.00 1274.27,770.00 1277.45,770.00 1280.62,770.00 1283.80,770.00 1286.98,770.00 1290.15,770.00 1293.33,770.00 1296.50,770.00 1299.68,770.00 1302.85,770.00 1306.03,770.00 1309.20,770.00 1312.38,770.00 1315.55,770.00 1318.73,770.00 1321.90,770.00 1325.08,770.00 1328.25,770.00 1331.43,770.00 1334.60,770.00 1337.78,770.00 1340.95,770.00 1344.13,770.00 1347.30,770.00 1350.48,770.00 1353.65,770.00 1356.83,770.00 1360.00,770.00" /><line x1="1150" y1="58" x2="1190" y2="58" stroke="#1565c0" stroke-width="3"/><text x="1200" y="63" font-family="sans-serif" font-size="14">tiny8 (m=3, e=[-6,7])</text><line x1="1150" y1="80" x2="1190" y2="80" stroke="#c62828" stroke-width="3"/><text x="1200" y="85" font-family="sans-serif" font-size="14">fp16_like (m=10, e=[-14,15])</text><line x1="1150" y1="102" x2="1190" y2="102" stroke="#2e7d32" stroke-width="3"/><text x="1200" y="107" font-family="sans-serif" font-size="14">bf16_like (m=7, e=[-126,127])</text><line x1="1150" y1="124" x2="1190" y2="124" stroke="#6a1b9a" stroke-width="3"/><text x="1200" y="129" font-family="sans-serif" font-size="14">f32_like (m=23, e=[-126,127])</text><line x1="1150" y1="146" x2="1190" y2="146" stroke="#ef6c00" stroke-width="3"/><text x="1200" y="151" font-family="sans-serif" font-size="14">f64_like (m=52, e=[-1022,1023])</text></svg>